<?xml version="1.0" encoding="utf-8"?>
<!-- Generator: Adobe Illustrator 18.0.0, SVG Export Plug-In . SVG Version: 6.00 Build 0)  -->
<!DOCTYPE svg PUBLIC "-//W3C//DTD SVG 1.1//EN" "http://www.w3.org/Graphics/SVG/1.1/DTD/svg11.dtd">
<svg version="1.1" id="Слой_1" xmlns="http://www.w3.org/2000/svg" xmlns:xlink="http://www.w3.org/1999/xlink" x="0px" y="0px"
	 viewBox="0 0 18 22" enable-background="new 0 0 18 22" xml:space="preserve">
<ellipse fill-rule="evenodd" clip-rule="evenodd" fill="currentColor" cx="9.1" cy="12" rx="3.4" ry="3.5"/>
<rect x="1.6" y="1.6" fill-rule="evenodd" clip-rule="evenodd" fill="currentColor" width="14.7" height="3.7"/>
<path fill-rule="evenodd" clip-rule="evenodd" d="M13.6,14c-0.8,1.8-2.5,3-4.6,3c-2.8,0-5-2.2-5-5c0-2.8,2.2-5,5-5
	c2.1,0,3.8,1.2,4.6,3H14c0.6,0,1,0.4,1,1v2c0,0.6-0.4,1-1,1H13.6L13.6,14z M0,2c0-1.1,0.9-2,2-2h14c1.1,0,2,0.9,2,2v16
	c0,1.1-0.9,2-2,2H2c-1.1,0-2-0.9-2-2V2L0,2z M2,2h14v16H2V2L2,2z M2,5h14v1H2V5L2,5z M3,20h3v1c0,0.6-0.4,1-1,1H4c-0.6,0-1-0.4-1-1
	V20L3,20z M12,20h3v1c0,0.6-0.4,1-1,1h-1c-0.6,0-1-0.4-1-1V20L12,20z M9,15c1.7,0,3-1.3,3-3s-1.3-3-3-3c-1.7,0-3,1.3-3,3
	S7.3,15,9,15L9,15z M3,3.5C3,3.2,3.2,3,3.5,3h1C4.8,3,5,3.2,5,3.5C5,3.8,4.8,4,4.5,4h-1C3.2,4,3,3.8,3,3.5L3,3.5z M6,3.5
	C6,3.2,6.2,3,6.5,3C6.8,3,7,3.2,7,3.5C7,3.8,6.8,4,6.5,4C6.2,4,6,3.8,6,3.5L6,3.5z"/>
</svg>
