<?xml version="1.0" encoding="utf-8"?>
<!-- Generator: Adobe Illustrator 18.0.0, SVG Export Plug-In . SVG Version: 6.00 Build 0)  -->
<!DOCTYPE svg PUBLIC "-//W3C//DTD SVG 1.1//EN" "http://www.w3.org/Graphics/SVG/1.1/DTD/svg11.dtd">
<svg version="1.1" id="Слой_1" xmlns="http://www.w3.org/2000/svg" xmlns:xlink="http://www.w3.org/1999/xlink" x="0px" y="0px"
	 viewBox="0 0 18 19.8" enable-background="new 0 0 18 19.8" xml:space="preserve">
<rect x="1.5" y="13.5" fill="currentColor" width="5.8" height="4.5"/>
<rect x="11.8" y="12.5" fill="currentColor" width="4.5" height="2.6"/>
<path fill-rule="evenodd" clip-rule="evenodd" d="M5,8.8h2v-8C7,0.2,6.6-0.1,6.1,0C6.1,0,2,0.8,2,4.8c0,4,0,4,0,4h2v-4
	c0-1.5,1-2,1-2V8.8L5,8.8z M4,8.8H1v3h7v-3H5v0L4,8.8L4,8.8L4,8.8z M0,11.8h9v6c0,1.1-0.9,2-2,2H2c-1.1,0-2-0.9-2-2V11.8L0,11.8z
	 M10,8c0-2.2,1.8-4,4-4c2.2,0,4,1.8,4,4v9.7c0,1.1-0.9,2-2,2h-4c-1.1,0-2-0.9-2-2V8L10,8z M2,13.8h5v4H2V13.8L2,13.8z M12,7.8
	c0-1.1,0.9-2,2-2c1.1,0,2,0.9,2,2v10h-4V7.8L12,7.8z M12,14.8h4v1h-4V14.8L12,14.8z M12,11.8h4v1h-4V11.8L12,11.8z M3,10.8h3v1H3
	V10.8L3,10.8z"/>
</svg>
