<?xml version="1.0" encoding="utf-8"?>
<!-- Generator: Adobe Illustrator 18.0.0, SVG Export Plug-In . SVG Version: 6.00 Build 0)  -->
<!DOCTYPE svg PUBLIC "-//W3C//DTD SVG 1.1//EN" "http://www.w3.org/Graphics/SVG/1.1/DTD/svg11.dtd">
<svg version="1.1" id="SvgjsSvg1040" xmlns:svgjs="http://svgjs.com/svgjs"
	 xmlns="http://www.w3.org/2000/svg" xmlns:xlink="http://www.w3.org/1999/xlink" x="0px" y="0px" viewBox="0 0 16 20"
	 enable-background="new 0 0 16 20" xml:space="preserve">
<title>Shape Copy 7</title>
<desc>Created with Avocode.</desc>
<path id="SvgjsPath1042" fill="currentColor" d="M3,18c-0.5,0-1-0.5-1-1c0-0.5,0.5-1,1-1c-0.5,0,10,0,11,0c-0.5,0-1,0.5-1,1s0.5,1,1,1
	C13,18,3,18,3,18z"/>
<path id="SvgjsPath1043" fill="#1D2E49" d="M3,0C2.1,0,1.4,0.3,0.9,0.9C0.3,1.4,0,2.1,0,2.9C0,3,0,3,0,3v13.8c0,0,0,0.1,0,0.1
	s0,0.1,0,0.1c0,1.5,1,3,2.9,3h12c0.5,0,1-0.5,1-1c0-0.5-0.5-1-0.5-1S15,17.5,15,17c0-1,1-1,1-1s0-10,0-15c0-0.6-0.5-1-1-1H3z M3,14
	c-0.9,0-1,0.4-1,0.5C2,14.2,2,3,2,3c0-0.5,0.5-1,1-1h11v12H3z M3,18c-0.5,0-1-0.5-1-1c0-0.5,0.5-1,1-1c-0.5,0,10,0,11,0
	c-0.5,0-1,0.5-1,1s0.5,1,1,1C13,18,3,18,3,18z M11.1,10c0.5,0,0.9-0.4,0.9-1s-0.4-1-0.9-1H4.9C4.4,8,4,8.4,4,9s0.4,1,0.9,1H11.1z
	 M2,14.5C2,14.5,2,14.5,2,14.5C2,14.5,2,14.5,2,14.5z M11.1,6C11.6,6,12,5.6,12,5s-0.4-1-0.9-1H4.9C4.4,4,4,4.4,4,5s0.4,1,0.9,1
	H11.1z"/>
</svg>
