<?xml version="1.0" encoding="utf-8"?>
<!-- Generator: Adobe Illustrator 18.0.0, SVG Export Plug-In . SVG Version: 6.00 Build 0)  -->
<!DOCTYPE svg PUBLIC "-//W3C//DTD SVG 1.1//EN" "http://www.w3.org/Graphics/SVG/1.1/DTD/svg11.dtd">
<svg version="1.1" id="SvgjsSvg1028" xmlns:svgjs="http://svgjs.com/svgjs"
	 xmlns="http://www.w3.org/2000/svg" xmlns:xlink="http://www.w3.org/1999/xlink" x="0px" y="0px" viewBox="0.6 0 22.9 16"
	 enable-background="new 0.6 0 22.9 16" xml:space="preserve">
<title>Rectangle 25 Copy</title>
<desc>Created with Avocode.</desc>
<path id="SvgjsPath1030" fill="currentColor" d="M6,1.9c0,0,3.5-0.5,6-0.5s6,0.5,6,0.5L19,5c0,0-3.9-0.5-7.3-0.5C8.3,4.5,5,5,5,5L6,1.9z"
	/>
<path id="SvgjsPath1031" fill="#1D2E49" d="M0.6,6c0,0,1-0.2,2.6-0.4L3.4,5H3C2.4,5,2,4.6,2,4s0.4-1,1-1h1.2L5,1c0,0,3.6-1,7-1
	s7,1,7,1l0.8,2H22v1c0,0.6-0.4,1-1,1h-0.4l0.2,0.6C22.4,5.8,23.4,6,23.4,6L22,11.6v2.9c0,0.8-0.7,1.5-1.5,1.5H20c-0.6,0-1-0.4-1-1
	v-1H5v0.5C5,15.3,4.3,16,3.5,16H3c-0.6,0-1-0.4-1-1v-3.5L0.6,6z M4,12h16l1.5-5c0,0-4.8-1-9.3-1C7.6,6,2.6,7,2.6,7L4,12z M5,5
	c0,0,3.3-0.5,6.7-0.5C15.1,4.5,19,5,19,5l-1-3c0,0-3.5-0.5-6-0.5S6,2,6,2L5,5z M5,8.5C5,7.7,5.7,7,6.5,7S8,7.7,8,8.5S7.3,10,6.5,10
	S5,9.3,5,8.5z M16,8.5C16,7.7,16.7,7,17.5,7S19,7.7,19,8.5S18.3,10,17.5,10S16,9.3,16,8.5z M9.5,7H15v0.5C15,7.8,14.8,8,14.5,8h-5
	C9.2,8,9,7.8,9,7.5S9.2,7,9.5,7z M10.5,9H14v0.5c0,0.3-0.2,0.5-0.5,0.5h-3C10.2,10,10,9.8,10,9.5S10.2,9,10.5,9z M10.5,2H13v0.5
	C13,2.8,12.8,3,12.5,3h-2C10.2,3,10,2.8,10,2.5S10.2,2,10.5,2z"/>
</svg>
