<?xml version="1.0" encoding="utf-8"?>
<!-- Generator: Adobe Illustrator 18.0.0, SVG Export Plug-In . SVG Version: 6.00 Build 0)  -->
<!DOCTYPE svg PUBLIC "-//W3C//DTD SVG 1.1//EN" "http://www.w3.org/Graphics/SVG/1.1/DTD/svg11.dtd">
<svg version="1.1" id="SvgjsSvg1024" xmlns:svgjs="http://svgjs.com/svgjs"
	 xmlns="http://www.w3.org/2000/svg" xmlns:xlink="http://www.w3.org/1999/xlink" x="0px" y="0px" viewBox="0 0 22 19"
	 enable-background="new 0 0 22 19" xml:space="preserve">
<title>Combined Shape Copy 10</title>
<desc>Created with Avocode.</desc>
<path id="SvgjsPath1026" fill="currentColor" d="M7,14c0-1.7,1.8-3,4-3s4,1.3,4,3s-1.8,3-4,3S7,15.7,7,14z M2.9,7.4c0,0-2-2.5,0-4.5
	s4,0,4,0L2.9,7.4z M16,2.9c0,0,2-2,4,0s0,4.5,0,4.5L16,2.9z"/>
<path id="SvgjsPath1027" fill="#1D2E49" d="M0,4.5C0,2,2,0,4.5,0c1.4,0,2.6,0.6,3.4,1.5C8.9,1.2,9.9,1,11,1s2.1,0.2,3.1,0.5
	c0.8-0.9,2-1.5,3.4-1.5C20,0,22,2,22,4.5c0,1.6-0.9,3-2.2,3.8C19.9,8.9,20,9.4,20,10c0,5-4,9-9,9s-9-4-9-9c0-0.6,0.1-1.1,0.2-1.7
	C0.9,7.5,0,6.1,0,4.5z M15.8,15.1C17.2,13.8,18,12,18,10c0-3.9-3.1-7-7-7s-7,3.1-7,7c0,2,0.8,3.8,2.2,5.1C6.1,14.7,6,14.4,6,14
	c0-2.2,2.2-4,5-4s5,1.8,5,4C16,14.4,15.9,14.7,15.8,15.1z M11,17c2.2,0,4-1.3,4-3s-1.8-3-4-3s-4,1.3-4,3S8.8,17,11,17z M6,2.5
	C5.6,2.2,5.1,2,4.5,2C3.1,2,2,3.1,2,4.5c0,0.7,0.3,1.4,0.8,1.8C3.5,4.8,4.6,3.4,6,2.5z M19.2,6.3C19.7,5.9,20,5.2,20,4.5
	C20,3.1,18.9,2,17.5,2c-0.6,0-1.1,0.2-1.5,0.5C17.4,3.4,18.5,4.8,19.2,6.3z M9,12.5c0-0.8,0.9-1.5,2-1.5s2,0.7,2,1.5S12.1,14,11,14
	S9,13.3,9,12.5z M13,8.5C13,7.7,13.4,7,14,7s1,0.7,1,1.5S14.6,10,14,10S13,9.3,13,8.5z M7,8.5C7,7.7,7.4,7,8,7s1,0.7,1,1.5
	S8.6,10,8,10S7,9.3,7,8.5z"/>
</svg>
