<?xml version="1.0" encoding="utf-8"?>
<!-- Generator: Adobe Illustrator 19.0.0, SVG Export Plug-In . SVG Version: 6.00 Build 0)  -->
<svg version="1.1" id="SvgjsSvg1008" xmlns:svgjs="http://svgjs.com/svgjs"
	 xmlns="http://www.w3.org/2000/svg" xmlns:xlink="http://www.w3.org/1999/xlink" x="0px" y="0px" viewBox="-296 390 14 14"
	 enable-background="new -296 390 14 14" xml:space="preserve">
<title>Combined Shape</title>
<desc>Created with Avocode.</desc>
<path id="SvgjsPath1010" fill="#FFFFFF" d="M-290.4,397l-5.3,5.3c-0.4,0.4-0.4,1,0,1.4c0.4,0.4,1,0.4,1.4,0l5.3-5.2
	c0,0,3.5,3.4,5.3,5.2c0.4,0.4,1,0.4,1.4,0c0.4-0.4,0.4-1,0-1.4l-5.3-5.3l5.3-5.3c0.4-0.4,0.4-1,0-1.4c-0.4-0.4-1-0.4-1.4,0
	c-1.8,1.8-5.3,5.2-5.3,5.2l-5.3-5.2c-0.4-0.4-1-0.4-1.4,0c-0.4,0.4-0.4,1,0,1.4L-290.4,397z"/>
</svg>
