<?xml version="1.0" encoding="utf-8"?>
<!-- Generator: Adobe Illustrator 18.0.0, SVG Export Plug-In . SVG Version: 6.00 Build 0)  -->
<!DOCTYPE svg PUBLIC "-//W3C//DTD SVG 1.1//EN" "http://www.w3.org/Graphics/SVG/1.1/DTD/svg11.dtd">
<svg version="1.1" id="SvgjsSvg1068" xmlns:svgjs="http://svgjs.com/svgjs"
	 xmlns="http://www.w3.org/2000/svg" xmlns:xlink="http://www.w3.org/1999/xlink" x="0px" y="0px" viewBox="0 0 22 20"
	 enable-background="new 0 0 22 20" xml:space="preserve">
<title>Path 9</title>
<desc>Created with Avocode.</desc>
<path id="SvgjsPath1070" fill="currentColor" d="M7,3c0,0,1.5-1,4-1s4,1,4,1s-2,2-4,2S7,3,7,3z"/>
<path id="SvgjsPath1071" fill="#1D2E49" d="M5.9,1C3.4,2.1,1.3,4.6,0.1,6.9C0,7.1,0,7.5,0.2,7.7l2.7,3.5c0.3,0.3,0.8,0.4,1.1,0.1
	L5,10.5V17c0,0.6,0.1,0.8,0.5,1.2c0.4,0.4,0.8,0.7,1.4,1C8,19.7,9.4,20,11,20s3-0.3,4.1-0.8c0.5-0.3,1-0.6,1.4-1
	c0.4-0.4,0.5-0.7,0.5-1.2c0,0,0-6.5,0-6.5l1.1,0.8c0.3,0.3,0.8,0.3,1.1-0.1l2.7-3.5C22,7.5,22,7.1,21.9,6.9
	c-1.2-2.2-3.3-4.8-5.8-5.9c-1.6-0.7-3.3-1-5.1-1S7.5,0.3,5.9,1z M15,16.5c0,0-1.5,1.5-4,1.5s-4-1.5-4-1.5v-10L3.5,9l-1-2
	c0,0,1.1-2.3,3.7-3.7c0.5,0.6,2,2.2,4.8,2.2s4.3-1.6,4.8-2.2C18.4,4.7,19.5,7,19.5,7l-1,2L15,6.5V16.5z M7.6,2.6C8.6,2.2,9.7,2,11,2
	s2.4,0.2,3.4,0.6C13.8,3.2,12.6,4,11,4S8.2,3.2,7.6,2.6z"/>
</svg>
