<?xml version="1.0" encoding="utf-8"?>
<!-- Generator: Adobe Illustrator 18.0.0, SVG Export Plug-In . SVG Version: 6.00 Build 0)  -->
<!DOCTYPE svg PUBLIC "-//W3C//DTD SVG 1.1//EN" "http://www.w3.org/Graphics/SVG/1.1/DTD/svg11.dtd">
<svg version="1.1" id="SvgjsSvg1013" xmlns:svgjs="http://svgjs.com/svgjs"
	 xmlns="http://www.w3.org/2000/svg" xmlns:xlink="http://www.w3.org/1999/xlink" x="0px" y="0px" viewBox="-574.3 770 24.4 20"
	 enable-background="new -574.3 770 24.4 20" xml:space="preserve">
<path fill="currentColor" d="M-566.6,786c0-0.9-0.6-1.3-1.4-1.4c-0.1,0-1.1-0.1-1.1-0.1c-1.6,0-2.4-1.3-2.6-1.6c-0.1-0.6-0.3-1.3-0.3-2.3
	c-0.1-2.3-0.1-5.1,0.3-6.6c0.3-1,0.7-1.4,1.7-1.6c1.7-0.3,4.6-0.4,7.9-0.4s6.1,0.1,7.7,0.4c0.9,0.1,1.4,0.6,1.9,1.7
	c0.6,1.7,0.6,6.6,0,8.6c-0.3,1.1-0.6,1.4-1.7,1.6c-1.6,0.3-5.1,0.4-8,0.4c-0.9,0-1.9,0-2.4,0s-1.3,0.3-1.6,1
	c-0.1,0.1-0.4,0.6-0.4,0.6S-566.6,786.4-566.6,786z"/>
<path d="M-566.3,785.3c0-0.7-0.6-1.1-1.3-1.3c-0.1,0-1-0.1-1-0.1c-1.4,0-2.3-1.1-2.4-1.4c-0.1-0.6-0.1-1.1-0.3-2
	c-0.1-2-0.1-4.6,0.3-5.9c0.3-0.9,0.7-1.3,1.6-1.4c1.6-0.3,4.3-0.4,7.3-0.4s5.7,0.1,7.1,0.4c0.9,0.1,1.3,0.6,1.7,1.6
	c0.6,1.6,0.6,5.9,0,7.7c-0.3,1-0.6,1.3-1.6,1.4c-1.4,0.3-4.7,0.4-7.4,0.4c-0.9,0-1.7,0-2.3,0c-0.6,0-1.1,0.3-1.4,0.9
	c-0.1,0.1-0.4,0.6-0.4,0.6S-566.3,785.7-566.3,785.3z M-562.2,787.1c2.9,0,6.3-0.1,7.9-0.4c2.1-0.3,3.3-1.4,3.9-3.4
	c0.7-2.4,0.7-7.3,0-9.4c-0.7-1.9-1.9-3-3.9-3.4c-1.7-0.3-4.6-0.4-7.7-0.4c-3.1,0-6,0.1-7.9,0.4c-2,0.4-3.3,1.6-3.9,3.4
	c-0.7,2.3-0.7,6.9,0,9.4c0.6,2,4.4,3.4,4.4,3.4s-0.3,0.7-0.4,1.1c-0.6,1.1,0.4,2.4,1.6,2.1c1.9-0.4,4.3-2.9,4.3-2.9
	S-563.2,787.1-562.2,787.1z"/>
</svg>
