<?xml version="1.0" encoding="utf-8"?>
<!-- Generator: Adobe Illustrator 18.0.0, SVG Export Plug-In . SVG Version: 6.00 Build 0)  -->
<!DOCTYPE svg PUBLIC "-//W3C//DTD SVG 1.1//EN" "http://www.w3.org/Graphics/SVG/1.1/DTD/svg11.dtd">
<svg version="1.1" id="SvgjsSvg1036" xmlns:svgjs="http://svgjs.com/svgjs"
	 xmlns="http://www.w3.org/2000/svg" xmlns:xlink="http://www.w3.org/1999/xlink" x="0px" y="0px" viewBox="1 0 17.7 19.7"
	 enable-background="new 1 0 17.7 19.7" xml:space="preserve">
<title>Path 12</title>
<desc>Created with Avocode.</desc>
<path id="SvgjsPath1038" fill="currentColor" d="M7.2,4.5l7,7l3-3h-3.5L7.2,4.5z"/>
<path id="SvgjsPath1039" fill="#1D2E49" d="M17.4,12.6l-2.8,2.8l-5.1-4.2c-0.2-0.2-0.5-0.1-0.7,0l-1.5,1.5c-0.2,0.2-0.2,0.5,0,0.7
	c0.2,0.2,0.5,0.2,0.7,0l1.2-1.2l5.1,4.2c0.2,0.2,0.5,0.1,0.7,0l3.5-3.5c0.2-0.2,0.2-0.5,0-0.7l-1.5-1.5l1.4-1.4c0.4-0.4,0.4-1,0-1.4
	l-7.6-7.6c-0.4-0.4-1-0.4-1.4,0L5.8,3.9c-0.4,0.4-0.4,1,0,1.4l7.6,7.6c0.4,0.4,1,0.4,1.4,0l1.4-1.4L17.4,12.6z M1.3,18.8l0.6,0.6
	c0.4,0.4,1,0.4,1.4,0l3.6-3.6c0.4-0.4,0.4-1,0-1.4l-0.6-0.6c-0.4-0.4-1-0.4-1.4,0l-3.6,3.6C0.9,17.8,0.9,18.4,1.3,18.8z M7.6,4.6
	l2.5-2.5l6.5,6.5l-2.5,2.5L7.6,4.6z"/>
</svg>
