<?xml version="1.0" encoding="utf-8"?>
<!-- Generator: Adobe Illustrator 18.0.0, SVG Export Plug-In . SVG Version: 6.00 Build 0)  -->
<!DOCTYPE svg PUBLIC "-//W3C//DTD SVG 1.1//EN" "http://www.w3.org/Graphics/SVG/1.1/DTD/svg11.dtd">
<svg version="1.1" id="SvgjsSvg1000" xmlns:svgjs="http://svgjs.com/svgjs"
	 xmlns="http://www.w3.org/2000/svg" xmlns:xlink="http://www.w3.org/1999/xlink" x="0px" y="0px" viewBox="1 0 23 19"
	 enable-background="new 1 0 23 19" xml:space="preserve">
<title>Combined Shape</title>
<desc>Created with Avocode.</desc>
<path id="SvgjsPath1007" fill="#FFFFFF" d="M3.2,17.3c0.2-0.6,0.4-1.2,0.8-1.8C4.9,13.9,6.5,13,9,13s4.1,0.9,5.1,2.5
	c0.3,0.6,0.7,1.5,0.7,1.5S9.6,17,7,17c-0.6,0-1,0.5-1,1s0.4,1,1,1h9c0.6,0,1.1-0.5,1-1.1c-0.1-0.9-0.4-2.2-1.2-3.5
	C14.4,12.3,12.2,11,9,11s-5.4,1.3-6.8,3.5C1.4,15.8,1.1,17,1,17.9c0,0.5,0.4,1,0.9,1.1c0.5,0,1-0.4,1.1-0.9C3,18,3.1,17.7,3.2,17.3z
	 M9,10c2.8,0,5-2.2,5-5s-2.2-5-5-5S4,2.2,4,5S6.2,10,9,10z M9,8C7.3,8,6,6.7,6,5s1.3-3,3-3s3,1.3,3,3S10.7,8,9,8z M21,13v-3h3V8h-3
	V5h-2v3h-3v2h3v3H21z"/>
</svg>
