<?xml version="1.0" encoding="utf-8"?>
<!-- Generator: Adobe Illustrator 18.0.0, SVG Export Plug-In . SVG Version: 6.00 Build 0)  -->
<!DOCTYPE svg PUBLIC "-//W3C//DTD SVG 1.1//EN" "http://www.w3.org/Graphics/SVG/1.1/DTD/svg11.dtd">
<svg version="1.1" id="SvgjsSvg1014" xmlns:svgjs="http://svgjs.com/svgjs"
	 xmlns="http://www.w3.org/2000/svg" xmlns:xlink="http://www.w3.org/1999/xlink" x="0px" y="0px" viewBox="0 0 16 17.7"
	 enable-background="new 0 0 16 17.7" xml:space="preserve">
<path d="M15,11c0.5,0,1-0.5,1-1V5.4C16,2.4,13.4,0,10.4,0L5.5,0C2.4,0,0,2.4,0,5.4
	c0,1.9,1,3.7,2.7,4.7c3.3,2.7,3.2,6.5,3.2,6.5c0,0.5,0.3,0.9,0.8,1c0,0,0.2,0,0.5,0c1.5,0,3.2-0.9,3.2-3.4c0-1.4-0.2-2.5-0.4-3.3H15
	z"/>
</svg>
