<?xml version="1.0" encoding="utf-8"?>
<!-- Generator: Adobe Illustrator 19.0.0, SVG Export Plug-In . SVG Version: 6.00 Build 0)  -->
<svg version="1.1" id="SvgjsSvg1000" xmlns:svgjs="http://svgjs.com/svgjs"
	 xmlns="http://www.w3.org/2000/svg" xmlns:xlink="http://www.w3.org/1999/xlink" x="0px" y="0px" viewBox="-293 387 24 20"
	 enable-background="new -293 387 24 20" xml:space="preserve">
<title>Combined Shape</title>
<desc>Created with Avocode.</desc>
<path id="SvgjsPath1007" fill="#FFFFFF" d="M-289,402c0-0.6,0.4-1,1-1h4c0.6,0,1,0.4,1,1v1h13c0.6,0,1,0.4,1,1s-0.4,1-1,1h-13v1
	c0,0.6-0.4,1-1,1h-4c-0.6,0-1-0.4-1-1v-1h-3c-0.6,0-1-0.4-1-1s0.4-1,1-1h3V402z M-289,388c0-0.6,0.4-1,1-1h4c0.6,0,1,0.4,1,1v1h13
	c0.6,0,1,0.4,1,1s-0.4,1-1,1h-13v1c0,0.6-0.4,1-1,1h-4c-0.6,0-1-0.4-1-1v-1h-3c-0.6,0-1-0.4-1-1s0.4-1,1-1h3V388z M-279,395
	c0-0.6,0.4-1,1-1h4c0.6,0,1,0.4,1,1v1h3c0.6,0,1,0.4,1,1s-0.4,1-1,1h-3v1c0,0.6-0.4,1-1,1h-4c-0.6,0-1-0.4-1-1v-1h-13
	c-0.6,0-1-0.4-1-1s0.4-1,1-1h13V395z M-287,390c0,0.6,0.4,1,1,1s1-0.4,1-1s-0.4-1-1-1S-287,389.4-287,390z M-277,397
	c0,0.6,0.4,1,1,1s1-0.4,1-1s-0.4-1-1-1S-277,396.4-277,397z M-287,404c0,0.6,0.4,1,1,1s1-0.4,1-1s-0.4-1-1-1S-287,403.4-287,404z"/>
</svg>
