<?xml version="1.0" encoding="utf-8"?>
<!-- Generator: Adobe Illustrator 18.0.0, SVG Export Plug-In . SVG Version: 6.00 Build 0)  -->
<!DOCTYPE svg PUBLIC "-//W3C//DTD SVG 1.1//EN" "http://www.w3.org/Graphics/SVG/1.1/DTD/svg11.dtd">
<svg version="1.1" id="SvgjsSvg1052" xmlns:svgjs="http://svgjs.com/svgjs"
	 xmlns="http://www.w3.org/2000/svg" xmlns:xlink="http://www.w3.org/1999/xlink" x="0px" y="0px" viewBox="0 0 22 16"
	 enable-background="new 0 0 22 16" xml:space="preserve">
<title>Combined Shape Copy 17</title>
<desc>Created with Avocode.</desc>
<path id="SvgjsPath1054" fill="#1D2E49" d="M21,12c0-5.5-4.5-10-10-10S1,6.5,1,12c0,1,1,1,1,1h18C20,13,21,13,21,12z M3,11
	c0.5-3.9,3.9-7,8-7c4.1,0,7.5,3.1,8,7C19,11,3,11,3,11z M22,16v-2H0v2H22z M11,2c0.6,0,1-0.4,1-1s-0.4-1-1-1s-1,0.4-1,1S10.4,2,11,2
	z M8,8c1.1-1.1,1.8-2.5,1.4-2.8C9,4.8,7.6,5.4,6.5,6.5C5.4,7.6,4.8,9,5.2,9.4C5.6,9.8,6.9,9.1,8,8z"/>
<path id="SvgjsPath1055" fill="currentColor" d="M19,11c-0.5-3.9-3.9-7-8-7c-3.8,0-7,2.7-7.9,6.2C3.9,7.2,6.5,5,9.5,5
	c3.3,0,6.1,2.6,6.5,6c0,0-1,0-2.5,0C16.5,11,19,11,19,11z"/>
</svg>
