<?xml version="1.0" encoding="utf-8"?>
<!-- Generator: Adobe Illustrator 18.0.0, SVG Export Plug-In . SVG Version: 6.00 Build 0)  -->
<!DOCTYPE svg PUBLIC "-//W3C//DTD SVG 1.1//EN" "http://www.w3.org/Graphics/SVG/1.1/DTD/svg11.dtd">
<svg version="1.1" id="SvgjsSvg1056" xmlns:svgjs="http://svgjs.com/svgjs"
	 xmlns="http://www.w3.org/2000/svg" xmlns:xlink="http://www.w3.org/1999/xlink" x="0px" y="0px" viewBox="0 0 20 20"
	 enable-background="new 0 0 20 20" xml:space="preserve">
<title>Combined Shape Copy 20</title>
<desc>Created with Avocode.</desc>
<path id="SvgjsPath1058" fill="currentColor" d="M0,10C0,4.5,4.5,0,10,0s10,4.5,10,10s-4.5,10-10,10S0,15.5,0,10z M9,17c4.4,0,8-3.6,8-8
	s-3.6-8-8-8S1,4.6,1,9S4.6,17,9,17z"/>
<path id="SvgjsPath1059" fill="#1D2E49" d="M0,10c0,5.5,4.5,10,10,10s10-4.5,10-10S15.5,0,10,0S0,4.5,0,10z M7,1.9l2.4,1.7v3L7,8.4
	L4.1,7.4L3.2,4.6C4.2,3.4,5.5,2.4,7,1.9z M10.6,3.6L13,1.9c1.5,0.6,2.8,1.5,3.8,2.8l-0.9,2.8L13,8.4l-2.4-1.8V3.6z M6.6,9.5l0.9,2.8
	l-1.8,2.5h-3c-0.9-1.3-1.4-2.8-1.5-4.5l2.4-1.7L6.6,9.5z M11.5,13.1l1.8,2.5l-0.9,2.8c-0.8,0.2-1.6,0.3-2.4,0.3
	c-0.8,0-1.6-0.1-2.4-0.3l-0.9-2.8l1.8-2.5H11.5z M13.4,9.5l2.9-0.9l2.4,1.7c-0.1,1.7-0.6,3.2-1.5,4.5h-2.9l-1.8-2.5L13.4,9.5z"/>
</svg>
