<?xml version="1.0" encoding="utf-8"?>
<!-- Generator: Adobe Illustrator 18.0.0, SVG Export Plug-In . SVG Version: 6.00 Build 0)  -->
<!DOCTYPE svg PUBLIC "-//W3C//DTD SVG 1.1//EN" "http://www.w3.org/Graphics/SVG/1.1/DTD/svg11.dtd">
<svg version="1.1" id="Слой_1" xmlns="http://www.w3.org/2000/svg" xmlns:xlink="http://www.w3.org/1999/xlink" x="0px" y="0px"
	 viewBox="0 0 22 20" enable-background="new 0 0 22 20" xml:space="preserve">
<rect x="6.7" y="8.7" fill-rule="evenodd" clip-rule="evenodd" fill="currentColor" width="8.6" height="2.7"/>
<path fill-rule="evenodd" clip-rule="evenodd" d="M15,8.5V6c0-2.2-1.8-4-4-4C8.8,2,7,3.8,7,6v5h8V8.5L15,8.5V10c0,0-1.5-1-4-1
	c-2.5,0-4,1-4,1V8.5c0,0,1-1,4-1C14,7.5,15,8.5,15,8.5L15,8.5z M17,9.5C17,8.7,17.7,8,18.5,8S20,8.7,20,9.5c0,0.8-0.7,1.5-1.5,1.5
	c-0.2,0-0.3,0-0.5-0.1V15h-1V9.5L17,9.5z M4,10.9C3.8,11,3.7,11,3.5,11C2.7,11,2,10.3,2,9.5C2,8.7,2.7,8,3.5,8S5,8.7,5,9.5V15H4
	V10.9L4,10.9z M17,14.9V17H5v-2.2V19c0,0.5-0.4,1-1,1H3c-0.6,0-1-0.4-1-1v-6.3c-1.2-0.6-2-1.8-2-3.2C0,7.6,1.6,6,3.5,6
	C4,6,4.5,6.2,5,6.4V6c0-3.3,2.7-6,6-6c3.3,0,6,2.7,6,6v0.4C17.5,6.2,18,6,18.5,6C20.4,6,22,7.6,22,9.5c0,1.4-0.8,2.6-2,3.2V19
	c0,0.5-0.4,1-1,1h-1c-0.6,0-1-0.4-1-1V14.9L17,14.9V13H5v2L17,14.9L17,14.9L17,14.9z"/>
</svg>
