<?xml version="1.0" encoding="utf-8"?>
<!-- Generator: Adobe Illustrator 18.0.0, SVG Export Plug-In . SVG Version: 6.00 Build 0)  -->
<!DOCTYPE svg PUBLIC "-//W3C//DTD SVG 1.1//EN" "http://www.w3.org/Graphics/SVG/1.1/DTD/svg11.dtd">
<svg version="1.1" id="SvgjsSvg1064" xmlns:svgjs="http://svgjs.com/svgjs"
	 xmlns="http://www.w3.org/2000/svg" xmlns:xlink="http://www.w3.org/1999/xlink" x="0px" y="0px" viewBox="0 0 20 20"
	 enable-background="new 0 0 20 20" xml:space="preserve">
<title>Shape Copy 6</title>
<desc>Created with Avocode.</desc>
<path id="SvgjsPath1066" fill="#1D2E49" d="M3,4.1C2.9,3.8,2.9,3.5,2.8,3.2c0-0.1,0-0.2,0-0.4C2.8,2.6,2.9,2.3,3,2
	c0.1-0.2,0.2-0.4,0.3-0.6C3.5,1,3.8,0.8,4.1,0.6c0.2-0.2,0.5-0.3,0.8-0.4C5.2,0.1,5.6,0,5.9,0C6,0,6.1,0,6.1,0c0.2,0,0.5,0,0.7,0.1
	c0.2,0,0.3,0.1,0.4,0.1c0.1,0,0.2,0.1,0.3,0.1c0.7,0.4,1.3,0.9,1.8,1.6c0.1,0.1,0.2,0.2,0.3,0.4C9.8,2.5,9.9,2.7,10,2.9
	c0,0,0,0,0,0.1c0-0.1,0.1-0.1,0.1-0.2c0.1-0.2,0.2-0.3,0.3-0.5c0.1-0.1,0.2-0.3,0.3-0.4c0.5-0.7,1.2-1.3,2-1.6
	c0.1-0.1,0.3-0.1,0.4-0.1C13.3,0,13.6,0,13.8,0c0,0,0.1,0,0.1,0c0.4,0,0.8,0.1,1.1,0.2c0.3,0.1,0.5,0.2,0.8,0.4
	c0.3,0.2,0.6,0.5,0.8,0.8C16.8,1.5,16.9,1.7,17,2c0.1,0.3,0.1,0.6,0.2,0.8c0,0.1,0,0.3,0,0.4c0,0.3-0.1,0.6-0.2,0.9
	C17,4.3,16.7,5,16.6,5H19c0.5,0,1,0.5,1,1c0,1.1,0,2.9,0,4c0,0.5-0.5,1-1,1h-1v8c0,0.5-0.5,1-1,1c-3.2,0-10.8,0-14,0
	c-0.5,0-1-0.5-1-1v-8H1c-0.5,0-1-0.5-1-1c0-1.1,0-2.9,0-4c0-0.5,0.5-1,1-1h2.5C3.5,5,3.1,4.3,3,4.1z M4,18h5v-7H4V18z M11,18h5v-7
	h-5V18z M9,7H2v2h7V7z M11,7v2h7V7H11z M8.4,4.5C8.2,4,7.9,3.5,7.6,3.1C7.5,2.9,7.3,2.7,7.1,2.5C7,2.4,6.9,2.3,6.7,2.2
	C6.6,2.1,6.4,2,6.3,2C6.2,2,6.1,2,6,2C5.9,2,5.9,2,5.8,2c-0.2,0-0.4,0.1-0.6,0.3c0,0-0.1,0.1-0.1,0.1c0,0.1-0.1,0.1-0.1,0.2
	c0,0.1,0,0.2,0,0.3C5,3,5,3.2,5,3.3c0,0.1,0,0.1,0.1,0.2c0.2,0.4,0.5,0.7,0.9,1c0.3,0.2,0.5,0.3,0.8,0.5c0,0,0.1,0,0.1,0.1h1.7
	C8.6,4.8,8.5,4.6,8.4,4.5z M13.6,4.7c0.2-0.1,0.4-0.3,0.6-0.4c0.3-0.3,0.6-0.6,0.7-1c0-0.1,0-0.3,0.1-0.4c0,0,0-0.1,0-0.1
	c0-0.1,0-0.2,0-0.2c0-0.1-0.1-0.1-0.1-0.2c0-0.1-0.1-0.1-0.1-0.1C14.6,2.1,14.4,2,14.1,2c-0.1,0-0.2,0-0.3,0c-0.1,0-0.2,0-0.3,0.1
	c-0.1,0-0.3,0.1-0.4,0.2c-0.2,0.1-0.3,0.3-0.4,0.4c-0.1,0.1-0.1,0.1-0.2,0.2c-0.1,0.1-0.1,0.2-0.2,0.3c-0.4,0.5-0.6,1-0.9,1.6
	c0,0.1-0.1,0.2-0.1,0.3h1.7C13.3,4.9,13.5,4.8,13.6,4.7z"/>
<path id="SvgjsPath1067" fill="currentColor" d="M2,9V7h7v2H2z M11,9V7h7v2H11z"/>
</svg>
