<?xml version="1.0" encoding="utf-8"?>
<!-- Generator: Adobe Illustrator 19.0.0, SVG Export Plug-In . SVG Version: 6.00 Build 0)  -->
<svg version="1.1" id="SvgjsSvg1067" xmlns:svgjs="http://svgjs.com/svgjs"
	 xmlns="http://www.w3.org/2000/svg" xmlns:xlink="http://www.w3.org/1999/xlink" x="0px" y="0px" viewBox="-292 389 24 14.9"
	 enable-background="new -292 389 24 14.9" xml:space="preserve">
<title>ic_g+</title>
<desc>Created with Avocode.</desc>
<path id="SvgjsPath1069" fill="#A7AEBA" d="M-284.6,389c1.8-0.1,3.6,0.7,5,1.8c-0.6,0.7-1.2,1.3-1.9,2c-1.7-1.2-4.1-1.5-5.8-0.1
	c-2.4,1.7-2.5,5.6-0.2,7.4c2.3,2.1,6.5,1,7.2-2.1c-1.4,0-2.8,0-4.3-0.1c0-0.8,0-1.7,0-2.5c2.4,0,4.7,0,7.1,0c0.1,2-0.1,4.1-1.3,5.8
	c-1.8,2.6-5.6,3.4-8.5,2.3c-2.9-1.1-5-4.2-4.7-7.3C-291.9,392.2-288.4,388.9-284.6,389z M-270.1,393.5c0,0.7,0,1.4,0,2.1
	c0.7,0,1.4,0,2.1,0v2.1c-0.7,0-1.4,0-2.1,0c0,0.7,0,1.4,0,2.1h-2.1c0-0.7,0-1.4,0-2.1c-0.7,0-1.4,0-2.1,0v-2.1c0.7,0,1.4,0,2.1,0
	c0-0.7,0-1.4,0-2.1H-270.1z"/>
</svg>
