<?xml version="1.0" encoding="utf-8"?>
<!-- Generator: Adobe Illustrator 19.0.0, SVG Export Plug-In . SVG Version: 6.00 Build 0)  -->
<svg version="1.1" id="SvgjsSvg1017" xmlns:svgjs="http://svgjs.com/svgjs"
	 xmlns="http://www.w3.org/2000/svg" xmlns:xlink="http://www.w3.org/1999/xlink" x="0px" y="0px" viewBox="-298 390 14 13.3"
	 enable-background="new -298 390 14 13.3" xml:space="preserve">
<title>Shape Copy</title>
<desc>Created with Avocode.</desc>
<path id="SvgjsPath1019" fill="#E64D49" d="M-284,394.1c0,1.3-0.5,2.6-1.6,4c-1,1.2-2.3,2.5-4.2,4.1l-0.9,0.9
	c-0.1,0.1-0.2,0.1-0.3,0.1s-0.2,0-0.3-0.1l-0.9-0.9c-1.8-1.7-3.2-2.9-4.2-4.1c-1.1-1.4-1.6-2.7-1.6-4c0-2.3,1.8-4.1,4-4.1
	c1.1,0,2.2,0.5,3,1.2c0.8-0.8,1.9-1.2,3-1.2C-285.8,390-284,391.8-284,394.1z"/>
</svg>
