<?xml version="1.0" encoding="utf-8"?>
<!-- Generator: Adobe Illustrator 19.0.0, SVG Export Plug-In . SVG Version: 6.00 Build 0)  -->
<svg version="1.1" id="SvgjsSvg1018" xmlns:svgjs="http://svgjs.com/svgjs"
	 xmlns="http://www.w3.org/2000/svg" xmlns:xlink="http://www.w3.org/1999/xlink" x="0px" y="0px" viewBox="-295 387 20 19"
	 enable-background="new -295 387 20 19" xml:space="preserve">
<title>Combined Shape Copy 30</title>
<desc>Created with Avocode.</desc>
<path id="SvgjsPath1020" fill="currentColor" d="M-290.4,401c1.1,1,2.3,2.2,3.7,3.5l1.3,1.3c0.1,0.1,0.3,0.2,0.4,0.2s0.3-0.1,0.4-0.2
	l1.3-1.3c2.6-2.4,4.5-4.1,5.9-5.9c1.6-2,2.4-3.8,2.4-5.6c0-3.3-2.5-5.9-5.8-5.9c-0.1,0-0.1,0-0.2,0l1,2c0,0,1,0.5,1,2.5
	c0,3.6-3,5.5-6,7.5c-1.8,1.2-3.5,2-3.5,2H-290.4z"/>
<path id="SvgjsPath1021" fill="#1D2E49" d="M-283.6,390.2c-0.8,0.8-2,0.8-2.8,0c-0.8-0.8-1.8-1.2-2.8-1.2c-2.1,0-3.8,1.7-3.8,3.9
	c0,1.3,0.6,2.7,1.9,4.4c1.1,1.4,6.1,6,6.1,6s5-4.6,6.1-6c1.3-1.7,1.9-3.1,1.9-4.4c0-2.2-1.6-3.9-3.8-3.9
	C-281.8,389-282.8,389.4-283.6,390.2z M-275,392.9c0,1.8-0.8,3.6-2.4,5.6c-1.4,1.7-3.3,3.5-5.9,5.9l-1.3,1.3
	c-0.1,0.1-0.3,0.2-0.4,0.2s-0.3-0.1-0.4-0.2l-1.3-1.3c-2.6-2.4-4.5-4.1-5.9-5.9c-1.6-2-2.3-3.8-2.3-5.6c0-3.3,2.5-5.9,5.8-5.9
	c1.6,0,3.1,0.6,4.2,1.8c1.1-1.1,2.7-1.8,4.2-1.8C-277.5,387-275,389.6-275,392.9z"/>
</svg>
