<?xml version="1.0" encoding="utf-8"?>
<!-- Generator: Adobe Illustrator 18.0.0, SVG Export Plug-In . SVG Version: 6.00 Build 0)  -->
<!DOCTYPE svg PUBLIC "-//W3C//DTD SVG 1.1//EN" "http://www.w3.org/Graphics/SVG/1.1/DTD/svg11.dtd">
<svg version="1.1" id="SvgjsSvg1022" xmlns:svgjs="http://svgjs.com/svgjs"
	 xmlns="http://www.w3.org/2000/svg" xmlns:xlink="http://www.w3.org/1999/xlink" x="0px" y="0px" viewBox="-570.4 765 21 19"
	 enable-background="new -570.4 765 21 19" xml:space="preserve">
<title>Shape Copy 11</title>
<desc>Created with Avocode.</desc>
<path fill="currentColor" d="M-558.3,767.8c-0.9,0.9-2.2,0.9-3.2,0c-0.8-0.9-2-1.4-3.2-1.4c-2.3,0-4.2,1.9-4.2,4.4
	c0,1.6,0.6,3.1,2.1,4.9c1.3,1.6,6.8,6.7,6.8,6.7s5.6-5.2,6.8-6.7c1.5-1.9,2.1-3.5,2.1-4.9c0-2.5-1.8-4.4-4.2-4.4
	C-556.3,766.4-557.5,766.9-558.3,767.8z"/>
<path d="M-555.5,767.9c-0.8,0-1.7,0.3-2.3,0.9l-2.1,1.9l-2.1-1.9c-0.6-0.6-1.5-0.9-2.3-0.9c-1.7,0-3,1.3-3,3.1
	c0,1.1,0.5,2.3,1.8,3.9c1.1,1.4,5.7,5.4,5.7,5.4s4.6-4.1,5.7-5.4c1.3-1.5,1.8-2.7,1.8-3.9C-552.4,769.2-553.8,767.9-555.5,767.9
	L-555.5,767.9z M-551.9,776.6c-1.5,1.7-3.5,3.5-6.2,5.9l-1.4,1.3c-0.1,0.1-0.3,0.2-0.4,0.2c-0.2,0-0.3-0.1-0.4-0.2l-1.4-1.3
	c-2.7-2.4-4.7-4.2-6.2-5.9c-1.7-2-2.5-3.8-2.5-5.7c0-3.3,2.7-5.9,6-5.9c1.6,0,3.2,0.6,4.4,1.8c1.2-1.1,2.8-1.8,4.4-1.8
	c3.4,0,6,2.6,6,5.9C-549.4,772.8-550.2,774.6-551.9,776.6L-551.9,776.6z"/>
</svg>
