<?xml version="1.0" encoding="utf-8"?>
<!-- Generator: Adobe Illustrator 18.0.0, SVG Export Plug-In . SVG Version: 6.00 Build 0)  -->
<!DOCTYPE svg PUBLIC "-//W3C//DTD SVG 1.1//EN" "http://www.w3.org/Graphics/SVG/1.1/DTD/svg11.dtd">
<svg version="1.1" id="SvgjsSvg1022" xmlns:svgjs="http://svgjs.com/svgjs"
	 xmlns="http://www.w3.org/2000/svg" xmlns:xlink="http://www.w3.org/1999/xlink" x="0px" y="0px" viewBox="-570.4 765 21 20"
	 enable-background="new -570.4 765 21 20" xml:space="preserve">
<title>Shape Copy 11</title>
<desc>Created with Avocode.</desc>
<path id="SvgjsPath1024" fill="currentColor" d="M-558.2,767.5c-1,1.1-2.4,1.1-3.5,0c-0.9-1.1-2.2-1.5-3.5-1.5c-2.6,0-4.7,2.1-4.7,4.9
	c0,1.8,0.7,3.4,2.3,5.5c1.4,1.8,7.6,7.5,7.6,7.5s6.2-5.7,7.6-7.5c1.6-2.1,2.3-3.9,2.3-5.5c0-2.8-2-4.9-4.7-4.9
	C-556,766-557.2,766.5-558.2,767.5z"/>
<path id="SvgjsPath1025" d="M-558.5,768.4c-0.8,0.8-2.1,0.8-2.9,0c-0.8-0.8-1.9-1.3-2.9-1.3c-2.2,0-4,1.8-4,4.1c0,1.5,0.6,2.8,2,4.6
	c1.2,1.5,6.4,6.3,6.4,6.3s5.3-4.8,6.4-6.3c1.4-1.8,2-3.3,2-4.6c0-2.3-1.7-4.1-4-4.1C-556.6,767.1-557.6,767.5-558.5,768.4z
	 M-549.4,771.2c0,2-0.8,3.9-2.5,6c-1.5,1.8-3.5,3.7-6.2,6.2l-1.4,1.4c-0.1,0.1-0.3,0.2-0.4,0.2c-0.1,0-0.3-0.1-0.4-0.2l-1.4-1.4
	c-2.7-2.5-4.7-4.3-6.2-6.2c-1.7-2.1-2.4-4-2.4-6c0-3.5,2.6-6.2,6.1-6.2c1.7,0,3.3,0.6,4.4,1.9c1.2-1.2,2.8-1.9,4.4-1.9
	C-552.1,765-549.4,767.7-549.4,771.2z"/>
</svg>
