<?xml version="1.0" encoding="utf-8"?>
<!-- Generator: Adobe Illustrator 18.0.0, SVG Export Plug-In . SVG Version: 6.00 Build 0)  -->
<!DOCTYPE svg PUBLIC "-//W3C//DTD SVG 1.1//EN" "http://www.w3.org/Graphics/SVG/1.1/DTD/svg11.dtd">
<svg version="1.1" id="SvgjsSvg1008" xmlns:svgjs="http://svgjs.com/svgjs"
	 xmlns="http://www.w3.org/2000/svg" xmlns:xlink="http://www.w3.org/1999/xlink" x="0px" y="0px" viewBox="0 0 20 19"
	 enable-background="new 0 0 20 19" xml:space="preserve">
<title>Shape</title>
<desc>Created with Avocode.</desc>
<path id="SvgjsPath1010" fill="#9DB7DF" d="M11.4,3.2c-0.8,0.8-2,0.8-2.8,0C7.8,2.4,6.8,2,5.8,2C3.6,2,2,3.7,2,5.9
	c0,1.4,0.6,2.7,1.9,4.4c1.1,1.4,6.1,6,6.1,6s5-4.6,6.1-6c1.3-1.7,1.9-3,1.9-4.4C18,3.7,16.4,2,14.2,2C13.2,2,12.2,2.4,11.4,3.2z
	 M20,5.9c0,1.9-0.8,3.7-2.4,5.7c-1.4,1.7-3.3,3.5-5.9,5.9l-1.3,1.3C10.3,18.9,10.1,19,10,19s-0.3,0-0.4-0.2l-1.3-1.3
	c-2.6-2.4-4.5-4.2-5.9-5.9C0.8,9.6,0,7.8,0,5.9C0,2.6,2.5,0,5.8,0C7.3,0,8.9,0.6,10,1.8C11.1,0.6,12.7,0,14.2,0
	C17.5,0,20,2.6,20,5.9z"/>
</svg>
