<?xml version="1.0" encoding="utf-8"?>
<!-- Generator: Adobe Illustrator 18.0.0, SVG Export Plug-In . SVG Version: 6.00 Build 0)  -->
<!DOCTYPE svg PUBLIC "-//W3C//DTD SVG 1.1//EN" "http://www.w3.org/Graphics/SVG/1.1/DTD/svg11.dtd">
<svg version="1.1" id="SvgjsSvg1032" xmlns:svgjs="http://svgjs.com/svgjs"
	 xmlns="http://www.w3.org/2000/svg" xmlns:xlink="http://www.w3.org/1999/xlink" x="0px" y="0px" viewBox="0.9 0 20.3 19"
	 enable-background="new 0.9 0 20.3 19" xml:space="preserve">
<title>Rectangle 28</title>
<desc>Created with Avocode.</desc>
<path id="SvgjsPath1034" fill="currentColor" d="M10.1,17v-4.6h2.1V17H10.1z"/>
<path id="SvgjsPath1035" fill="#1D2E49" d="M1.2,9.9l3-3c0-0.1-0.1-0.2-0.1-0.3v-2c0-0.6,0.4-1,1-1s1,0.4,1,1V5L10,1.1
	c0-0.3,0.1-0.6,0.3-0.8c0.4-0.4,1-0.4,1.4,0l9.2,9.2c0.4,0.4,0.4,1,0,1.4s-1,0.4-1.4,0l-8.2-8.2l-8.6,8.6c-0.4,0.4-1,0.4-1.4,0
	C0.8,10.9,0.8,10.3,1.2,9.9L1.2,9.9z M3.1,11.6l8-7.5l8,7.5v5h-2v-4l-6-6l-6,6v4h-2V11.6z M2,17h18c0.6,0,1,0.4,1,1s-0.4,1-1,1H2
	c-0.6,0-1-0.4-1-1S1.4,17,2,17z M8.1,12c0-0.6,0.4-1,1-1h4c0.6,0,1,0.4,1,1v4c0,0.6-0.4,1-1,1h-4c-0.6,0-1-0.4-1-1V12z M10.1,15.6
	c0,0.6,0.4,1,1,1c0.6,0,1-0.4,1-1v-2c0-0.6-0.4-1-1-1c-0.6,0-1,0.4-1,1V15.6z"/>
</svg>
