<?xml version="1.0" encoding="utf-8"?>
<!-- Generator: Adobe Illustrator 19.0.0, SVG Export Plug-In . SVG Version: 6.00 Build 0)  -->
<svg version="1.1" id="SvgjsSvg1020" xmlns:svgjs="http://svgjs.com/svgjs"
	 xmlns="http://www.w3.org/2000/svg" xmlns:xlink="http://www.w3.org/1999/xlink" x="0px" y="0px" viewBox="-299 385 11.7 23.3"
	 enable-background="new -299 385 11.7 23.3" xml:space="preserve">
<title>Combined Shape</title>
<desc>Created with Avocode.</desc>
<path id="SvgjsPath1022" fill="#3160AA" d="M-296.4,408.3c-0.9,0-1.5-0.2-1.9-0.7s-0.6-1-0.6-1.5c0-0.3,0-0.7,0.1-1
	c0.1-0.3,0.2-0.6,0.4-0.9l3-6.2c0.2-0.4,0.3-0.6,0.4-0.9c0.1-0.2,0.1-0.4,0.1-0.6c0-0.2,0-0.3-0.1-0.4c-0.1-0.1-0.1-0.1-0.3-0.1
	c-0.3,0-0.8,0.4-1.6,1.2c-0.8,0.8-1.3,1.2-1.4,1.2c-0.2,0-0.3-0.1-0.5-0.3c-0.2-0.2-0.3-0.4-0.3-0.4c0-0.2,0.2-0.6,0.6-1
	c0.4-0.5,0.9-1,1.5-1.5c0.5-0.5,1.2-0.9,2-1.3c0.8-0.4,1.4-0.6,2-0.6c0.9,0,1.6,0.3,2.1,0.8c0.5,0.5,0.7,1.2,0.7,1.9
	c0,0.3,0,0.6-0.1,1c-0.1,0.4-0.2,0.7-0.4,1.1l-2.4,5.3c-0.2,0.4-0.3,0.8-0.4,1.1c-0.1,0.3-0.1,0.5-0.1,0.6c0,0.1,0,0.2,0.1,0.2
	c0.1,0,0.1,0,0.2,0c0.5,0,1-0.3,1.6-1c0.6-0.7,1-1,1.2-1c0.1,0,0.3,0.1,0.5,0.3c0.2,0.2,0.3,0.4,0.3,0.5c0,0.3-0.8,1.1-2.4,2.4
	C-293.6,407.7-295.1,408.3-296.4,408.3z M-290.1,390.7c-0.8,0-1.5-0.3-2-0.8c-0.6-0.6-0.8-1.2-0.8-2c0-0.8,0.3-1.4,0.8-2
	c0.6-0.6,1.2-0.8,2-0.8c0.8,0,1.5,0.3,2,0.8c0.6,0.6,0.8,1.2,0.8,2c0,0.8-0.3,1.5-0.8,2C-288.7,390.4-289.3,390.7-290.1,390.7z"/>
</svg>
