<?xml version="1.0" encoding="utf-8"?>
<!-- Generator: Adobe Illustrator 19.0.0, SVG Export Plug-In . SVG Version: 6.00 Build 0)  -->
<svg version="1.1" id="SvgjsSvg1064" xmlns:svgjs="http://svgjs.com/svgjs"
	 xmlns="http://www.w3.org/2000/svg" xmlns:xlink="http://www.w3.org/1999/xlink" x="0px" y="0px" viewBox="-295 387 20 19.9"
	 enable-background="new -295 387 20 19.9" xml:space="preserve">
<title>ic_instagram</title>
<desc>Created with Avocode.</desc>
<path id="SvgjsPath1066" fill="#A7AEBA" d="M-288.6,387h7.3c3.5,0,6.4,2.8,6.4,6.3v7.3c0,3.5-2.8,6.3-6.4,6.3h-7.3
	c-3.5,0-6.4-2.8-6.4-6.3v-7.3C-295,389.8-292.2,387-288.6,387z M-293.2,400.6c0,2.5,2,4.5,4.5,4.5h7.3c2.5,0,4.5-2,4.5-4.5v-7.3
	c0-2.5-2-4.5-4.5-4.5h-7.3c-2.5,0-4.5,2-4.5,4.5V400.6z M-285,392.4c2.5,0,4.6,2,4.6,4.5s-2,4.5-4.6,4.5s-4.6-2-4.6-4.5
	C-289.6,394.5-287.5,392.4-285,392.4z M-285,399.7c1.5,0,2.7-1.2,2.7-2.7s-1.2-2.7-2.7-2.7s-2.7,1.2-2.7,2.7S-286.5,399.7-285,399.7
	z M-281,392c0-0.6,0.4-1,1-1s1,0.4,1,1s-0.4,1-1,1S-281,392.6-281,392z"/>
</svg>
