<?xml version="1.0" encoding="utf-8"?>
<!-- Generator: Adobe Illustrator 18.0.0, SVG Export Plug-In . SVG Version: 6.00 Build 0)  -->
<!DOCTYPE svg PUBLIC "-//W3C//DTD SVG 1.1//EN" "http://www.w3.org/Graphics/SVG/1.1/DTD/svg11.dtd">
<svg version="1.1" id="SvgjsSvg1010" xmlns:svgjs="http://svgjs.com/svgjs"
	 xmlns="http://www.w3.org/2000/svg" xmlns:xlink="http://www.w3.org/1999/xlink" x="0px" y="0px" viewBox="0 0 16 17.7"
	 enable-background="new 0 0 16 17.7" xml:space="preserve">
<path fill="currentColor" d="M4.5,16.5c0,0,5.5,0,7,0S15,15,15,15V8h-2.5c0,0,0,4.5,0,5.5s-1,2-2.5,2s-7,0-7,0
	L4.5,16.5z"/>
<path d="M10,6.7c0.2-0.8,0.4-1.9,0.4-3.3C10.4,0.9,8.7,0,7.2,0C6.9,0,6.7,0,6.7,0
	C6.2,0.1,5.8,0.5,5.9,1c0,0,0.1,3.8-3.2,6.5C1,8.6,0,10.3,0,12.2c0,3.1,2.4,5.4,5.5,5.4h4.9c3.1,0,5.6-2.4,5.6-5.4V7.7
	c0-0.5-0.5-1-1-1H10z M5.5,15.7c-2,0-3.5-1.4-3.5-3.4c0-1.3,0.7-2.5,1.8-3.1C3.8,9,3.9,9,3.9,8.9c2.9-2.4,3.6-5.4,3.8-7
	c0.5,0.2,0.7,0.6,0.7,1.4c0,1.9-0.3,3.1-0.6,3.8C7.7,7.5,7.7,7.9,7.9,8.1C8.1,8.4,8.5,8.7,9,8.7h5v1H9.5c-0.5,0-1,0.5-1,1s0.5,1,1,1
	H14v1l-4.5,0c-0.5,0-1,0.5-1,1s0.5,1,1,1H13c-0.5,0.5-1.2,1-2.5,1H5.5z"/>
</svg>
