<?xml version="1.0" encoding="utf-8"?>
<!-- Generator: Adobe Illustrator 19.0.0, SVG Export Plug-In . SVG Version: 6.00 Build 0)  -->
<svg version="1.1" id="SvgjsSvg1000" xmlns:svgjs="http://svgjs.com/svgjs"
	 xmlns="http://www.w3.org/2000/svg" xmlns:xlink="http://www.w3.org/1999/xlink" x="0px" y="0px" viewBox="-289 378 28.9 36.5"
	 enable-background="new -289 378 28.9 36.5" xml:space="preserve">
<title>take-away</title>
<desc>Created with Avocode.</desc>
<path id="SvgjsPath1007" fill="currentColor" d="M-261.2,408h-26.6l-0.1,3c-0.1,1.3,1,2.4,2.3,2.4h22.4c1.3,0,2.3-1.1,2.3-2.4L-261.2,408
	z"/>
<path id="SvgjsPath1008" fill="currentColor" d="M-273.5,401.5c0-1.7,1.3-3,3-3c1.7,0,3,1.3,3,3s-1.3,3-3,3
	C-272.2,404.5-273.5,403.2-273.5,401.5z M-282,395c0-1.7,1.3-3,3-3c1.7,0,3,1.3,3,3s-1.3,3-3,3C-280.7,398-282,396.7-282,395z"/>
<path id="SvgjsPath1009" fill="#1D2E49" d="M-281,385.5c0-0.1,0-0.2,0-0.3c0-0.2,0-0.4,0.1-0.7c0.1-0.6,0.3-1.3,0.6-1.9
	c0.4-0.8,1-1.4,1.7-1.9c0.9-0.6,2.1-0.9,3.6-0.9c1.5,0,2.7,0.3,3.6,0.9c0.8,0.5,1.3,1.1,1.8,1.9c0.3,0.6,0.6,1.3,0.7,2
	c0,0.2,0.1,0.4,0.1,0.6c0,0.1,0,0.2,0,0.2v3.6c0,0.5,0.4,1,1,1c0.5,0,1-0.4,1-1v-3.6c0,0,0-0.1,0-0.1c0-0.1,0-0.2,0-0.3
	c0-0.3-0.1-0.5-0.1-0.8c-0.2-0.9-0.4-1.7-0.9-2.5c-1.3-2.4-3.6-3.8-7.1-3.8s-5.8,1.4-7.1,3.8c-0.4,0.8-0.7,1.6-0.8,2.5
	c-0.1,0.3-0.1,0.6-0.1,0.9c0,0.2,0,0.3,0,0.4c0,0,0,3.6,0,3.6c0,0.5,0.4,1,1,1s1-0.4,1-1V385.5z"/>
<path id="SvgjsPath1010" fill="#1D2E49" d="M-263.4,414.5h-22.4c-0.9,0-1.7-0.4-2.4-1c-0.6-0.6-0.9-1.5-0.9-2.4l1-22
	c0.1-1.7,1.5-3.1,3.3-3.1h20.3c1.7,0,3.2,1.4,3.2,3.1l0.6,12.7c0,0.5-0.4,1-0.9,1c-0.5,0-1-0.4-1-0.9l-0.6-12.7
	c0-0.7-0.6-1.2-1.3-1.2h-20.3c-0.7,0-1.3,0.5-1.3,1.2l-1.1,22c0,0.4,0.1,0.7,0.4,0.9c0.3,0.3,0.6,0.4,0.9,0.4h22.4
	c0.4,0,0.7-0.1,0.9-0.4c0.2-0.3,0.4-0.6,0.4-0.9l-0.1-3c0-0.5,0.4-1,0.9-1c0.5,0,1,0.4,1,0.9l0.1,3c0,0.9-0.3,1.7-0.9,2.4
	C-261.6,414.1-262.5,414.5-263.4,414.5z"/>
<path id="SvgjsPath1011" fill="#1D2E49" d="M-273.5,401.5c0-1.7,1.3-3,3-3c1.7,0,3,1.3,3,3s-1.3,3-3,3
	C-272.2,404.5-273.5,403.2-273.5,401.5z M-282,395c0-1.7,1.3-3,3-3c1.7,0,3,1.3,3,3s-1.3,3-3,3C-280.7,398-282,396.7-282,395z
	 M-270.5,403c0.8,0,1.5-0.7,1.5-1.5s-0.7-1.5-1.5-1.5s-1.5,0.7-1.5,1.5S-271.3,403-270.5,403z M-279,396.5c0.8,0,1.5-0.7,1.5-1.5
	s-0.7-1.5-1.5-1.5s-1.5,0.7-1.5,1.5S-279.8,396.5-279,396.5z"/>
<path id="SvgjsPath1012" fill="#1D2E49" d="M-272.1,392.6c0.3-0.5,0.9-0.6,1.4-0.2l0,0c0.5,0.3,0.6,0.9,0.2,1.4l-7.5,10.6
	c-0.3,0.5-0.9,0.6-1.4,0.2l0,0c-0.5-0.3-0.6-0.9-0.2-1.4L-272.1,392.6z"/>
<path id="SvgjsPath1013" fill="#1D2E49" d="M-285.8,414.3c-0.9,0-1.7-0.4-2.4-1c-0.6-0.6-0.9-1.5-0.9-2.4l0.1-3c0-0.5,0.5-0.9,1-0.9
	h26.6c0.5,0,0.9,0.4,1,0.9l0.1,3c0,0.9-0.3,1.7-0.9,2.4c-0.6,0.6-1.5,1-2.4,1H-285.8z M-287.1,411c0,0.4,0.1,0.7,0.4,0.9
	c0.3,0.3,0.6,0.4,0.9,0.4h22.4c0.4,0,0.7-0.1,0.9-0.4c0.2-0.3,0.4-0.6,0.4-0.9l-0.1-2H-287L-287.1,411z"/>
</svg>
