<?xml version="1.0" encoding="utf-8"?>
<!-- Generator: Adobe Illustrator 18.0.0, SVG Export Plug-In . SVG Version: 6.00 Build 0)  -->
<!DOCTYPE svg PUBLIC "-//W3C//DTD SVG 1.1//EN" "http://www.w3.org/Graphics/SVG/1.1/DTD/svg11.dtd">
<svg version="1.1" id="SvgjsSvg1048" xmlns:svgjs="http://svgjs.com/svgjs"
	 xmlns="http://www.w3.org/2000/svg" xmlns:xlink="http://www.w3.org/1999/xlink" x="0px" y="0px" viewBox="0 0 15 15"
	 enable-background="new 0 0 15 15" xml:space="preserve">
<title>Path 15</title>
<desc>Created with Avocode.</desc>
<path id="SvgjsPath1050" fill="currentColor" d="M6.1,8.8v-3l7.5-2.5v3L6.1,8.8z"/>
<path id="SvgjsPath1051" fill="#1D2E49" d="M13,4.5L6.5,6.6V4.7L13,2.5V4.5z M6.5,7.7L13,5.5V9c-1,0-2,0.1-2.5,0.4
	c-0.8,0.4-1.4,1-1.7,1.7c-0.4,0.8-0.4,1.6-0.1,2.4c0.3,0.7,1,1.2,1.9,1.4c0.8,0.2,1.6,0,2.3-0.4c1.2-0.6,2-1.7,2-2.9V0.5
	c0-0.3-0.3-0.6-0.7-0.5L4.9,3.2C4.7,3.3,4.5,3.4,4.5,3.7V9C3.9,9,2.6,9.2,2,9.5c-0.8,0.4-1.4,1-1.7,1.7c-0.4,0.8-0.4,1.6-0.1,2.4
	C0.7,14.5,1.6,15,2.8,15c0.6,0,1.2-0.1,1.7-0.4c1-0.5,1.8-1.4,1.9-2.5l0.1-0.4V7.7z M4.5,11.1v0.5l0,0.2c-0.1,0.4-0.4,0.8-0.9,1
	c-0.7,0.4-1.4,0.3-1.6-0.1c-0.1-0.2-0.1-0.4,0.1-0.6c0.1-0.3,0.5-0.6,0.8-0.8C3.2,11.1,4.2,11.1,4.5,11.1z M13,11v0.5
	c0,0.4-0.4,0.9-0.9,1.2c-0.4,0.2-0.8,0.3-1.1,0.2c-0.3-0.1-0.4-0.2-0.5-0.3c-0.1-0.2-0.1-0.4,0.1-0.6c0.1-0.3,0.4-0.6,0.8-0.8
	C11.7,11,12,11,13,11z"/>
</svg>
