<?xml version="1.0" encoding="utf-8"?>
<!-- Generator: Adobe Illustrator 19.0.0, SVG Export Plug-In . SVG Version: 6.00 Build 0)  -->
<svg version="1.1" id="SvgjsSvg1058" xmlns:svgjs="http://svgjs.com/svgjs"
	 xmlns="http://www.w3.org/2000/svg" xmlns:xlink="http://www.w3.org/1999/xlink" x="0px" y="0px" viewBox="-300 389 10 16.9"
	 enable-background="new -300 389 10 16.9" xml:space="preserve">
<title>Shape</title>
<desc>Created with Avocode.</desc>
<path id="SvgjsPath1060" fill="#A7AEBA" d="M-290.5,393.4c0-2.4-2-4.4-4.5-4.4s-4.5,2-4.5,4.4c0,2.4,2,4.4,4.5,4.4
	S-290.5,395.8-290.5,393.4z M-293.2,393.4c0,1-0.8,1.8-1.8,1.8s-1.8-0.8-1.8-1.8s0.8-1.8,1.8-1.8S-293.2,392.4-293.2,393.4z
	 M-290.6,400.3c0.6-0.4,0.8-1.2,0.4-1.8c-0.4-0.6-1.2-0.8-1.8-0.4c-1.8,1.1-4.2,1.1-6,0c-0.6-0.4-1.4-0.2-1.8,0.4
	c-0.4,0.6-0.2,1.4,0.4,1.8c0.8,0.5,1.7,0.9,2.6,1l-2.5,2.4c-0.5,0.5-0.5,1.3,0,1.8c0.3,0.3,0.6,0.4,0.9,0.4s0.7-0.1,0.9-0.4l2.4-2.4
	l2.4,2.4c0.5,0.5,1.3,0.5,1.8,0c0.5-0.5,0.5-1.3,0-1.8l-2.5-2.4C-292.3,401.1-291.4,400.7-290.6,400.3z"/>
</svg>
