<?xml version="1.0" encoding="utf-8"?>
<!-- Generator: Adobe Illustrator 19.0.0, SVG Export Plug-In . SVG Version: 6.00 Build 0)  -->
<svg version="1.1" id="Layer_1" xmlns="http://www.w3.org/2000/svg" xmlns:xlink="http://www.w3.org/1999/xlink" x="0px" y="0px"
	 viewBox="0 0 14.5 12.8" enable-background="new 0 0 14.5 12.8" xml:space="preserve">
<path id="SvgjsPath1011" fill="#1E2F49" d="M8.5,9.5c0-1.7,1.3-3,3-3s3,1.3,3,3s-1.3,3-3,3S8.5,11.2,8.5,9.5z M0,3c0-1.7,1.3-3,3-3
	s3,1.3,3,3S4.7,6,3,6S0,4.7,0,3z M11.5,11c0.8,0,1.5-0.7,1.5-1.5S12.3,8,11.5,8S10,8.7,10,9.5S10.7,11,11.5,11z M3,4.5
	c0.8,0,1.5-0.7,1.5-1.5S3.8,1.5,3,1.5S1.5,2.2,1.5,3S2.2,4.5,3,4.5z"/>
<path id="SvgjsPath1012" fill="#1E2F49" d="M9.9,0.6c0.3-0.5,0.9-0.6,1.4-0.2l0,0c0.5,0.3,0.6,0.9,0.2,1.4L4,12.4
	c-0.3,0.5-0.9,0.6-1.4,0.2l0,0c-0.5-0.3-0.6-0.9-0.2-1.4L9.9,0.6z"/>
<path id="XMLID_15_" fill="currentColor" d="M11.5,11c0.8,0,1.5-0.7,1.5-1.5S12.3,8,11.5,8S10,8.7,10,9.5S10.7,11,11.5,11z"/>
<path id="XMLID_16_" fill="currentColor" d="M3,4.5c0.8,0,1.5-0.7,1.5-1.5S3.8,1.5,3,1.5S1.5,2.2,1.5,3S2.2,4.5,3,4.5z"/>
</svg>