<?xml version="1.0" encoding="utf-8"?>
<!-- Generator: Adobe Illustrator 19.0.0, SVG Export Plug-In . SVG Version: 6.00 Build 0)  -->
<svg version="1.1" id="SvgjsSvg1024" xmlns:svgjs="http://svgjs.com/svgjs"
	 xmlns="http://www.w3.org/2000/svg" xmlns:xlink="http://www.w3.org/1999/xlink" x="0px" y="0px"
	 viewBox="-887.4 1163.2 18.3 18.4" enable-background="new -887.4 1163.2 18.3 18.4" xml:space="preserve">
<title>Path 13 Copy</title>
<desc>Created with Avocode.</desc>
<path id="SvgjsPath1026" fill="currentColor" d="M-881.2,1173.8c0,0-2.1-0.7-4.2-1.4c-2.1-0.7-1.8-3.9-0.4-4.6s8.8-3.2,11.7-3.9c2.8-0.7,4.9,1.4,4.2,4.2
	c-0.7,2.8-3.2,10.3-3.9,11.7s-3.5,1.4-4.6-0.4S-881.2,1173.8-881.2,1173.8L-881.2,1173.8z"/>
<path id="SvgjsPath1027" fill="#3160AA" d="M-884.1,1170.7c-0.1,0-0.3-0.1-0.4-0.2c-0.2-0.1-0.5-0.3-0.6-0.4
	c-0.1-0.1-0.2-0.2-0.2-0.3s0-0.2,0.1-0.3c0.1-0.2,0.2-0.4,0.4-0.5h-0.1c0.1,0,0.3-0.1,0.6-0.2c0.5-0.1,1-0.3,1.5-0.5
	c1.5-0.5,3.1-1,4.5-1.4c0.1,0,0.1,0,0.2,0c3.4-1,5.6-1.7,6.2-1.8c0.8-0.2,1.1,0.2,0.9,1c-0.1,0.6-0.8,2.9-1.8,6.3
	c0,0.1,0,0.1-0.1,0.2c-0.4,1.4-0.9,3-1.4,4.5c-0.2,0.5-0.3,1-0.5,1.5c-0.1,0.3-0.1,0.5-0.2,0.6l0.1-0.2c-0.2,0.2-0.3,0.4-0.6,0.5
	c-0.1,0-0.2,0.1-0.3,0.1s-0.2,0-0.3-0.2c-0.1-0.1-0.3-0.3-0.4-0.6c-0.1-0.1-0.1-0.3-0.1-0.3l-0.1-0.1l-0.7-1.4
	c-0.2-0.5-0.8-0.7-1.3-0.5c-0.5,0.2-0.7,0.8-0.4,1.4l0.7,1.4l-0.1-0.1c0,0.1,0.1,0.3,0.2,0.6c0.2,0.4,0.5,0.8,0.8,1.1
	c0.5,0.5,1,0.7,1.7,0.7c0.4,0,0.7-0.1,1-0.2c0.7-0.2,1.1-0.7,1.5-1.2c0.1-0.1,0.1-0.2,0.1-0.2l0.1-0.2c0-0.1,0.1-0.3,0.2-0.6
	c0.1-0.5,0.3-0.9,0.5-1.5c0.5-1.5,0.9-3.1,1.4-4.5c0-0.1,0-0.1,0-0.2c1.1-3.5,1.7-5.8,1.9-6.4c0.4-2.2-1.1-3.8-3.3-3.3
	c-0.7,0.1-2.9,0.8-6.4,1.9c-0.1,0-0.1,0-0.2,0.1c-1.4,0.4-3,0.9-4.5,1.4c-0.5,0.2-1,0.3-1.5,0.5c-0.3,0.1-0.5,0.1-0.6,0.2l-0.2,0.1
	c-0.1,0-0.1,0.1-0.2,0.1c-0.5,0.3-0.9,0.8-1.2,1.5c-0.1,0.3-0.2,0.7-0.2,1c0,0.7,0.3,1.2,0.7,1.7c0.3,0.3,0.7,0.6,1.1,0.8
	c0.2,0.1,0.5,0.2,0.6,0.2l4.8,2.1c0.4,0.2,0.8,0.1,1.1-0.2l3.5-3.5c0.4-0.4,0.4-1,0-1.4s-1-0.4-1.4,0c-1,1-3.2,3.2-3.2,3.2
	L-884.1,1170.7z"/>
</svg>
