<?xml version="1.0" encoding="utf-8"?>
<!-- Generator: Adobe Illustrator 19.0.0, SVG Export Plug-In . SVG Version: 6.00 Build 0)  -->
<svg version="1.1" id="SvgjsSvg1014" xmlns:svgjs="http://svgjs.com/svgjs"
	 xmlns="http://www.w3.org/2000/svg" xmlns:xlink="http://www.w3.org/1999/xlink" x="0px" y="0px" viewBox="-295 387 19 19"
	 enable-background="new -295 387 19 19" xml:space="preserve">
<title>Combined Shape Copy 36</title>
<desc>Created with Avocode.</desc>
<path id="SvgjsPath1016" fill="currentColor" d="M-293,394.5c0-0.2,0-0.4,0-0.5c0.2,2.3,2.2,4,4.5,4c2.5,0,4.5-2,4.5-4.5
	c0-2.3-1.8-4.2-4-4.5c0.2,0,0.3,0,0.5,0c3,0,5.5,2.5,5.5,5.5s-2.5,5.5-5.5,5.5S-293,397.5-293,394.5z"/>
<path id="SvgjsPath1017" fill="#1D2E49" d="M-277.7,405.7c0.4,0.4,1,0.4,1.4,0c0.4-0.4,0.4-1,0-1.4l-5.2-5.2c1-1.3,1.5-2.8,1.5-4.5
	c0-4.1-3.4-7.5-7.5-7.5s-7.5,3.4-7.5,7.5s3.4,7.5,7.5,7.5c1.7,0,3.3-0.6,4.5-1.5L-277.7,405.7z M-287.5,400c-3,0-5.5-2.5-5.5-5.5
	s2.5-5.5,5.5-5.5s5.5,2.5,5.5,5.5S-284.5,400-287.5,400z"/>
</svg>
