<?xml version="1.0" encoding="utf-8"?>
<!-- Generator: Adobe Illustrator 18.0.0, SVG Export Plug-In . SVG Version: 6.00 Build 0)  -->
<!DOCTYPE svg PUBLIC "-//W3C//DTD SVG 1.1//EN" "http://www.w3.org/Graphics/SVG/1.1/DTD/svg11.dtd">
<svg version="1.1" id="SvgjsSvg1060" xmlns:svgjs="http://svgjs.com/svgjs"
	 xmlns="http://www.w3.org/2000/svg" xmlns:xlink="http://www.w3.org/1999/xlink" x="0px" y="0px" viewBox="0 0 23 21"
	 enable-background="new 0 0 23 21" xml:space="preserve">
<title>Path Copy 5</title>
<desc>Created with Avocode.</desc>
<path id="SvgjsPath1062" fill="currentColor" d="M12,2h9v8h-7.5L12,11V2z"/>
<path id="SvgjsPath1063" fill="#1D2E49" d="M10,0.8V13c0,0.3,0.2,0.8,0.5,0.9s0.6,0.2,0.8,0L14,12h8.2c0.4,0,0.8-0.3,0.8-0.7V0.8
	C23,0.4,22.6,0,22.2,0H10.8c0,0,0,0-0.1,0C10.3,0,10,0.4,10,0.8z M21,2v8h-7.5L12,11V2H21z M0,20.3C0,20.7,0.3,21,0.7,21h10.6
	c0.4,0,0.7-0.3,0.7-0.8c0-3-2.8-5.3-6-5.3S0,17.3,0,20.3z M3,11c0,1.6,1.4,3,3,3s3-1.4,3-3S7.6,8,6,8S3,9.4,3,11z M14.1,3.8
	C14,4,14,4.3,14.2,4.6c0.2,0.2,0.4,0.3,0.7,0.3c0.3,0,0.5-0.2,0.6-0.4c0.1-0.2,0.6-0.6,1.1-0.6c0.6,0,1,0.4,1,0.8
	c0,0.2,0,0.2-0.1,0.3c-0.1,0.1-0.2,0.2-0.4,0.3c-0.2,0.1-0.4,0.2-0.6,0.3c-0.1,0.1-0.2,0.2-0.4,0.3c-0.1,0.1-0.3,0.4-0.3,0.7v0.3
	c0,0.3,0.1,0.5,0.4,0.7c0.2,0.1,0.5,0.1,0.8,0s0.4-0.4,0.4-0.7V6.9c0.1-0.1,0.3-0.2,0.5-0.3c0.3-0.2,0.6-0.4,0.8-0.7
	c0.3-0.3,0.5-0.8,0.5-1.3c0-1.3-1.2-2.3-2.6-2.3C15.6,2.3,14.5,2.8,14.1,3.8z M7,11c0,0.6-0.4,1-1,1s-1-0.4-1-1s0.4-1,1-1
	S7,10.4,7,11z M15.8,9c0,0.4,0.4,0.8,0.8,0.8c0.4,0,0.8-0.3,0.8-0.8c0-0.4-0.4-0.8-0.8-0.8C16.2,8.2,15.8,8.5,15.8,9z M10,19H2
	c0.4-1.1,2-2,4-2S9.6,17.9,10,19z"/>
</svg>
