<?xml version="1.0" encoding="utf-8"?>
<!-- Generator: Adobe Illustrator 18.0.0, SVG Export Plug-In . SVG Version: 6.00 Build 0)  -->
<!DOCTYPE svg PUBLIC "-//W3C//DTD SVG 1.1//EN" "http://www.w3.org/Graphics/SVG/1.1/DTD/svg11.dtd">
<svg viewBox="0.4 0.4 126 20" enable-background="new 0.4 0.4 126 20" xml:space="preserve">
<path d="M108.6,20.4l1.3-7.2L104.5,8l7.6-1l3.4-6.6l3.4,6.6l7.6,1l-5.5,5.1l1.3,7.2l-6.8-3.4
	L108.6,20.4z M82.6,20.4l1.3-7.2L78.5,8L86,7l3.4-6.6L92.9,7l7.6,1L95,13.2l1.3,7.2L89.5,17L82.6,20.4z M56.6,20.4l1.3-7.2L52.5,8
	L60,7l3.4-6.6L66.9,7l7.6,1L69,13.2l1.3,7.2L63.5,17L56.6,20.4z M30.6,20.4l1.3-7.2L26.5,8L34,7l3.4-6.6L40.9,7l7.6,1L43,13.2
	l1.3,7.2L37.5,17L30.6,20.4z M4.6,20.4l1.3-7.2L0.4,8l7.6-1l3.4-6.6L14.9,7l7.6,1l-5.5,5.1l1.3,7.2L11.4,17L4.6,20.4z"/>
</svg>
