<?xml version="1.0" encoding="utf-8"?>
<!-- Generator: Adobe Illustrator 19.0.0, SVG Export Plug-In . SVG Version: 6.00 Build 0)  -->
<svg version="1.1" id="SvgjsSvg1048" xmlns:svgjs="http://svgjs.com/svgjs"
	 xmlns="http://www.w3.org/2000/svg" xmlns:xlink="http://www.w3.org/1999/xlink" x="0px" y="0px" viewBox="-292 380 26 34"
	 enable-background="new -292 380 26 34" xml:space="preserve">
<title>Path 16</title>
<desc>Created with Avocode.</desc>
<path id="SvgjsPath1050" fill="currentColor" d="M-290,386l2.5,3l-2.5,3h23l-3.5-3l2.5-3H-290z"/>
<path id="SvgjsPath1051" fill="#1D2E49" d="M-292,387c0-1.1,0.9-2,2-2h5c0-0.3,0-0.6,0-1c0-2,2-4,4-4s2,0,4,0s4,2,4,4
	c0,0.4,0,0.7,0,1h5c1.1,0,2,0.9,2,2v23c0,2.2-1.8,4-4,4h-18c-2.2,0-4-1.8-4-4V387z M-283,385h8c0-0.3,0-0.7,0-1c0-1-1-2-2-2
	s-3,0-4,0s-2,1-2,2C-283,384.3-283,384.7-283,385z M-290,412h22v-20c0,0.6-0.4,1-1,1h-4c0,1.6,0,3,0,3s0,1-1,1s-1-1-1-1s0-1.7,0-3
	h-8c0,1.3,0,3,0,3s0,1-1,1s-1-1-1-1s0-1.4,0-3h-4c-0.6,0-1-0.4-1-1V412z M-274,410c-0.5,0-1-0.4-1-1c0-5-4.1-9.1-9.1-9.1
	c-0.5,0-1-0.4-1-1c0-0.5,0.4-1,1-1c6.1,0,11,5,11,11C-273,409.6-273.4,410-274,410z M-269,391l-2-2l2-2h-20l2,2l-2,2h4.2
	c0.5-1.6,2.2-3,3.8-3c2,0,2,0,4,0c1.7,0,3.3,1.4,3.8,3H-269z M-278.5,409c0-3-2.5-5.5-5.5-5.5c-0.5,0-1-0.4-1-1c0-0.5,0.4-1,1-1
	c4.1,0,7.4,3.3,7.4,7.4c0,0.5-0.4,1-1,1C-278.1,410-278.5,409.6-278.5,409z M-285,408c0-1.1,0.9-2,2-2s2,0.9,2,2s-0.9,2-2,2
	S-285,409.1-285,408z M-282.7,391h7.4c-0.4-0.6-1-1-1.7-1c-1,0-3,0-4,0C-281.7,390-282.3,390.4-282.7,391L-282.7,391z M-290,390l1-1
	l-1-1V390z M-268,388l-1,1l1,1V388z"/>
</svg>
