<?xml version="1.0" encoding="utf-8"?>
<!-- Generator: Adobe Illustrator 19.0.0, SVG Export Plug-In . SVG Version: 6.00 Build 0)  -->
<svg version="1.1" id="SvgjsSvg1030" xmlns:svgjs="http://svgjs.com/svgjs"
	 xmlns="http://www.w3.org/2000/svg" xmlns:xlink="http://www.w3.org/1999/xlink" x="0px" y="0px" viewBox="-295 387 16 19"
	 enable-background="new -295 387 16 19" xml:space="preserve">
<title>Combined Shape Copy 32</title>
<desc>Created with Avocode.</desc>
<path id="SvgjsPath1032" fill="currentColor" d="M-290,392c0-1.6,1.3-3,3-3c1.7,0,3,1.3,3,3c0,1.6-1.3,3-3,3
	C-288.7,395-290,393.6-290,392z M-294.4,405.9c0,0,0.5-8,7.4-8c6.9,0,7.4,8,7.4,8H-294.4z"/>
<path id="SvgjsPath1033" fill="#3160AA" d="M-292.9,404.3c0.2-0.6,0.4-1.2,0.8-1.8c1-1.6,2.6-2.5,5.1-2.5c2.5,0,4.1,0.9,5.1,2.5
	c0.4,0.6,0.7,1.5,0.7,1.5s-5.2,0-7.8,0c-0.5,0-1,0.5-1,1s0.5,1,1,1h9c0.6,0,1.1-0.5,1-1.1c-0.1-0.9-0.4-2.2-1.2-3.4
	c-1.4-2.2-3.6-3.5-6.8-3.5c-3.2,0-5.4,1.3-6.8,3.5c-0.8,1.3-1.1,2.5-1.2,3.4c0,0.6,0.4,1,0.9,1.1c0.5,0,1-0.4,1.1-0.9
	C-293,405-292.9,404.7-292.9,404.3z M-287,397c2.8,0,5-2.2,5-5s-2.2-5-5-5c-2.8,0-5,2.2-5,5S-289.8,397-287,397z M-287,395
	c-1.7,0-3-1.3-3-3s1.3-3,3-3s3,1.3,3,3S-285.3,395-287,395z"/>
<path id="SvgjsPath1034" fill="currentColor" d="M-290,392c0-1.7,1.3-3,3-3c1.7,0,3,1.3,3,3c0,1.7-1.3,3-3,3
	C-288.7,395-290,393.7-290,392z M-294,406c0,0,0.4-8,7-8s7,8,7,8H-294z"/>
<path id="SvgjsPath1035" fill="#3160AA" d="M-292.9,404.3c0.2-0.6,0.4-1.2,0.8-1.8c1-1.6,2.6-2.5,5.1-2.5c2.5,0,4.1,0.9,5.1,2.5
	c0.4,0.6,0.7,1.5,0.7,1.5s-5.2,0-7.8,0c-0.5,0-1,0.5-1,1s0.5,1,1,1h9c0.6,0,1.1-0.5,1-1.1c-0.1-0.9-0.4-2.2-1.2-3.4
	c-1.4-2.2-3.6-3.5-6.8-3.5c-3.2,0-5.4,1.3-6.8,3.5c-0.8,1.3-1.1,2.5-1.2,3.4c0,0.6,0.4,1,0.9,1.1c0.5,0,1-0.4,1.1-0.9
	C-293,405-292.9,404.7-292.9,404.3z M-287,397c2.8,0,5-2.2,5-5s-2.2-5-5-5c-2.8,0-5,2.2-5,5S-289.8,397-287,397z M-287,395
	c-1.7,0-3-1.3-3-3s1.3-3,3-3s3,1.3,3,3S-285.3,395-287,395z"/>
</svg>
