<?xml version="1.0" encoding="utf-8"?>
<!-- Generator: Adobe Illustrator 19.0.0, SVG Export Plug-In . SVG Version: 6.00 Build 0)  -->
<svg version="1.1" id="SvgjsSvg1000" xmlns:svgjs="http://svgjs.com/svgjs"
	 xmlns="http://www.w3.org/2000/svg" xmlns:xlink="http://www.w3.org/1999/xlink" x="0px" y="0px" viewBox="-296 391 18 12"
	 enable-background="new -296 391 18 12" xml:space="preserve">
<title>Combined Shape Copy</title>
<desc>Created with Avocode.</desc>
<path id="SvgjsPath1007" fill="currentColor" d="M-290.7,399.7c1.1,0.7,2.4,1.3,3.7,1.3c3.5,0,7-4,7-4s-0.5-0.5-1.3-1.2
	c-0.9,1-4.3,4.2-7.7,4.2C-289.6,400-290.2,399.9-290.7,399.7z"/>
<path id="SvgjsPath1008" d="M-278,397c0,0.4-0.1,0.7-0.4,0.9c-1.3,1.2-4.3,5.1-8.6,5.1s-7.3-3.8-8.6-5.1
	c-0.3-0.3-0.4-0.6-0.4-0.9s0.1-0.7,0.4-0.9c1.3-1.2,4.3-5.1,8.6-5.1s7.3,3.8,8.6,5.1C-278.1,396.3-278,396.6-278,397z M-287,393
	c-3.5,0-7,4-7,4s3.5,4,7,4s7-4,7-4S-283.5,393-287,393z M-290,397c0-1.7,1.3-3,3-3s3,1.3,3,3s-1.3,3-3,3S-290,398.7-290,397z
	 M-287,398c0.6,0,1-0.4,1-1s-0.4-1-1-1s-1,0.4-1,1S-287.6,398-287,398z"/>
</svg>
