<?xml version="1.0" encoding="utf-8"?>
<!-- Generator: Adobe Illustrator 19.0.0, SVG Export Plug-In . SVG Version: 6.00 Build 0)  -->
<svg version="1.1" id="SvgjsSvg1052" xmlns:svgjs="http://svgjs.com/svgjs"
	 xmlns="http://www.w3.org/2000/svg" xmlns:xlink="http://www.w3.org/1999/xlink" x="0px" y="0px" viewBox="-294 391 19 12"
	 enable-background="new -294 391 19 12" xml:space="preserve">
<title>Shape</title>
<desc>Created with Avocode.</desc>
<path id="SvgjsPath1054" fill="#A7AEBA" d="M-284.7,402.9h1.1c0,0,0.3,0,0.5-0.3c0.2-0.2,0.2-0.6,0.2-0.6s0-1.7,0.7-1.9
	c0.7-0.2,1.6,1.6,2.5,2.3c0.7,0.6,1.3,0.4,1.3,0.4l2.5,0c0,0,1.3-0.1,0.7-1.2c0-0.1-0.4-0.9-1.9-2.4c-1.6-1.6-1.4-1.4,0.5-4.2
	c1.2-1.7,1.6-2.8,1.5-3.2c-0.1-0.4-1-0.3-1-0.3l-2.8,0c0,0-0.2,0-0.4,0.1c-0.2,0.1-0.3,0.3-0.3,0.3s-0.5,1.3-1.1,2.5
	c-1.3,2.4-1.8,2.5-2,2.4c-0.5-0.3-0.4-1.4-0.4-2.1c0-2.3,0.3-3.3-0.6-3.5c-0.3-0.1-0.5-0.1-1.3-0.1c-1,0-1.9,0-2.4,0.3
	c-0.3,0.2-0.6,0.6-0.4,0.6c0.2,0,0.6,0.1,0.8,0.5c0.3,0.4,0.3,1.4,0.3,1.4s0.2,2.7-0.4,3.1c-0.4,0.2-0.9-0.2-2-2.4
	c-0.6-1.1-1-2.3-1-2.3s-0.1-0.2-0.2-0.4c-0.2-0.1-0.4-0.2-0.4-0.2l-2.7,0c0,0-0.4,0-0.6,0.2c-0.1,0.2,0,0.5,0,0.5s2.1,5.5,4.5,8.3
	C-287.2,403.1-284.7,402.9-284.7,402.9L-284.7,402.9z"/>
</svg>
