<?xml version="1.0" encoding="utf-8"?>
<!-- Generator: Adobe Illustrator 18.0.0, SVG Export Plug-In . SVG Version: 6.00 Build 0)  -->
<!DOCTYPE svg PUBLIC "-//W3C//DTD SVG 1.1//EN" "http://www.w3.org/Graphics/SVG/1.1/DTD/svg11.dtd">
<svg version="1.1" id="SvgjsSvg1044" xmlns:svgjs="http://svgjs.com/svgjs"
	 xmlns="http://www.w3.org/2000/svg" xmlns:xlink="http://www.w3.org/1999/xlink" x="0px" y="0px" viewBox="1 0 20 18"
	 enable-background="new 1 0 20 18" xml:space="preserve">
<title>Combined Shape Copy 22</title>
<desc>Created with Avocode.</desc>
<path id="SvgjsPath1046" fill="currentColor" d="M13.4,7c0.1,0,0.2,0,0.4,0c1.2,0,2.4-1.3,2.7-3C16.8,2.1,16,0.3,14.6,0
	c-0.1,0-0.2,0-0.4,0c-1.2,0-2.4,1.3-2.7,3C11.2,4.9,12,6.7,13.4,7z M20.2,5.4C19.9,5.1,19.5,5,19.1,5c-0.9,0-1.8,0.6-2.4,1.4
	c-0.9,1.4-0.9,3,0.1,3.8c0.3,0.3,0.7,0.4,1.1,0.4c0.9,0,1.8-0.6,2.4-1.4C21.2,7.8,21.2,6.1,20.2,5.4z M5.3,6.4C4.7,5.6,3.8,5,2.9,5
	C2.5,5,2.1,5.1,1.8,5.4c-1,0.8-1,2.4-0.1,3.8c0.6,0.9,1.5,1.4,2.4,1.4c0.4,0,0.8-0.1,1.1-0.4C6.2,9.5,6.2,7.8,5.3,6.4z M5.6,4
	C5.2,2.1,6,0.3,7.4,0c0.1,0,0.2,0,0.4,0c1.2,0,2.4,1.3,2.7,3C10.8,4.9,10,6.7,8.6,7C8.5,7,8.4,7,8.3,7C7,7,5.9,5.7,5.6,4z"/>
<path id="SvgjsPath1047" fill="#1D2E49" d="M6.5,12.9c-0.6,1.3-0.6,2.5-0.3,2.8C6.4,15.9,6.6,16,6.8,16c0.4,0,0.8-0.2,1.8-0.8
	c0.1-0.1,0.1-0.1,0.2-0.1c0.1,0,0.1,0,0.1-0.1c0.9-0.5,1.3-0.7,2-0.7c0.5,0,0.9,0.1,1.5,0.4c0.3,0.1,0.5,0.2,0.9,0.5
	c1,0.6,1.5,0.8,1.9,0.8c0.2,0,0.4-0.1,0.5-0.2c0.3-0.3,0.4-1.5-0.2-2.9C14.6,11.1,13,10,11,10C9,10,7.4,11.1,6.5,12.9z M8.3,7
	c0.1,0,0.3,0,0.4,0c1.3-0.3,2.1-2,1.8-3.9C10.1,1.3,9,0,7.7,0C7.6,0,7.5,0,7.4,0C6,0.3,5.2,2.1,5.6,4C5.9,5.7,7,7,8.3,7z M13.4,7
	c0.1,0,0.2,0,0.4,0c1.2,0,2.4-1.3,2.7-3C16.8,2.1,16,0.3,14.6,0c-0.1,0-0.2,0-0.4,0c-1.2,0-2.4,1.3-2.7,3C11.2,4.9,12,6.7,13.4,7z
	 M20.2,5.4C19.9,5.1,19.5,5,19.1,5c-0.9,0-1.8,0.6-2.4,1.4c-0.9,1.4-0.9,3,0.1,3.8c0.3,0.3,0.7,0.4,1.1,0.4c0.9,0,1.8-0.6,2.4-1.4
	C21.2,7.8,21.2,6.1,20.2,5.4z M5.3,6.4C4.7,5.6,3.8,5,2.9,5C2.5,5,2.1,5.1,1.8,5.4c-1,0.8-1,2.4-0.1,3.8c0.6,0.9,1.5,1.4,2.4,1.4
	c0.4,0,0.8-0.1,1.1-0.4C6.2,9.5,6.2,7.8,5.3,6.4z M7.5,3.6c-0.1-0.6,0-1.1,0.1-1.4C7.7,2.1,7.7,2,7.8,2c0.2,0.1,0.5,0.5,0.7,1.4
	c0.1,0.6,0,1.1-0.1,1.4C8.3,4.9,8.3,5,8.2,5C8.1,4.9,7.7,4.4,7.5,3.6z M13.7,4.8c-0.2-0.4-0.2-0.9-0.1-1.4c0.2-0.8,0.5-1.3,0.7-1.4
	c0,0,0,0.1,0.1,0.2c0.2,0.4,0.2,0.9,0.1,1.4c-0.2,0.8-0.5,1.3-0.7,1.4C13.7,5,13.7,4.9,13.7,4.8z M19,7.1c0,0.3-0.1,0.6-0.3,0.9
	c-0.2,0.3-0.5,0.5-0.7,0.6c0,0,0,0,0-0.1c0-0.3,0.1-0.6,0.3-0.9C18.5,7.3,18.8,7.1,19,7.1C19,7,19,7.1,19,7.1z M3.7,7.6
	C3.9,7.9,4,8.2,4,8.5c0,0,0,0.1,0,0.1C3.8,8.5,3.5,8.3,3.3,8C3.1,7.7,3,7.4,3,7.1C3,7.1,3,7,3,7C3.2,7.1,3.4,7.3,3.7,7.6z M4,8.6
	c0,0,0.1,0,0.1,0C4,8.6,4,8.6,4,8.6C4,8.6,4,8.6,4,8.6z M19,7C19,7,19,7,19,7c0,0,0.1,0,0.1,0C19,7,19,7,19,7z M18,8.6
	C18,8.6,18,8.6,18,8.6C18,8.6,17.9,8.6,18,8.6C17.9,8.6,18,8.6,18,8.6z M2.9,7C2.9,7,3,7,2.9,7C3,7,3,7,2.9,7C3,7,2.9,7,2.9,7z
	 M13.7,5C13.7,5,13.7,5,13.7,5C13.8,5,13.8,5,13.7,5C13.7,5,13.7,5,13.7,5z M7.8,2C7.7,2,7.7,2,7.8,2C7.7,2,7.7,2,7.8,2
	C7.8,2,7.8,2,7.8,2z M8.2,5C8.2,5,8.2,5,8.2,5C8.3,5,8.3,5,8.2,5C8.3,5,8.3,5,8.2,5z M14.2,2C14.2,2,14.2,2,14.2,2
	C14.3,2,14.3,2,14.2,2C14.3,2,14.3,2,14.2,2z M17.3,12c1,2.1,0.9,4.2-0.2,5.2c-0.6,0.5-1.2,0.8-1.9,0.8c-1,0-2-0.5-2.8-1
	c-0.5-0.3-1.1-0.6-1.4-0.6c-0.3,0-0.9,0.3-1.4,0.6c-0.8,0.5-1.8,1-2.8,1c-0.7,0-1.4-0.3-1.9-0.8c-1.1-1-1.1-3.1-0.2-5.1
	C5.9,9.5,8.3,8,11,8C13.8,8,16.1,9.5,17.3,12z"/>
</svg>
