<?xml version="1.0" encoding="UTF-8"?><!DOCTYPE svg PUBLIC "-//W3C//DTD SVG 1.1//EN" "http://www.w3.org/Graphics/SVG/1.1/DTD/svg11.dtd"><svg xmlns="http://www.w3.org/2000/svg"><symbol id="icon-appliances" viewBox="0 0 18 22">
    <ellipse fill-rule="evenodd" clip-rule="evenodd" fill="currentColor" cx="9.1" cy="12" rx="3.4" ry="3.5"/>
    <path fill-rule="evenodd" clip-rule="evenodd" fill="currentColor" d="M1.6 1.6h14.7v3.7H1.6z"/>
    <path fill-rule="evenodd" clip-rule="evenodd" d="M13.6 14c-.8 1.8-2.5 3-4.6 3-2.8 0-5-2.2-5-5s2.2-5 5-5c2.1 0 3.8 1.2 4.6 3h.4c.6 0 1 .4 1 1v2c0 .6-.4 1-1 1h-.4zM0 2C0 .9.9 0 2 0h14c1.1 0 2 .9 2 2v16c0 1.1-.9 2-2 2H2c-1.1 0-2-.9-2-2V2zm2 0h14v16H2V2zm0 3h14v1H2V5zm1 15h3v1c0 .6-.4 1-1 1H4c-.6 0-1-.4-1-1v-1zm9 0h3v1c0 .6-.4 1-1 1h-1c-.6 0-1-.4-1-1v-1zm-3-5c1.7 0 3-1.3 3-3s-1.3-3-3-3-3 1.3-3 3 1.3 3 3 3zM3 3.5c0-.3.2-.5.5-.5h1c.3 0 .5.2.5.5s-.2.5-.5.5h-1c-.3 0-.5-.2-.5-.5zm3 0c0-.3.2-.5.5-.5s.5.2.5.5-.2.5-.5.5-.5-.2-.5-.5z"/>
</symbol><symbol id="icon-beauty" viewBox="0 0 18 19.8">
    <path fill="currentColor" d="M1.5 13.5h5.8V18H1.5z"/>
    <path fill="currentColor" d="M11.8 12.5h4.5v2.6h-4.5z"/>
    <path fill-rule="evenodd" clip-rule="evenodd" d="M5 8.8h2v-8c0-.6-.4-.9-.9-.8C6.1 0 2 .8 2 4.8v4h2v-4c0-1.5 1-2 1-2v6zm-1 0H1v3h7v-3H4zm-4 3h9v6c0 1.1-.9 2-2 2H2c-1.1 0-2-.9-2-2v-6zM10 8c0-2.2 1.8-4 4-4s4 1.8 4 4v9.7c0 1.1-.9 2-2 2h-4c-1.1 0-2-.9-2-2V8zm-8 5.8h5v4H2v-4zm10-6c0-1.1.9-2 2-2s2 .9 2 2v10h-4v-10zm0 7h4v1h-4v-1zm0-3h4v1h-4v-1zm-9-1h3v1H3v-1z"/>
</symbol><symbol id="icon-books" viewBox="0 0 16 20">
    <title>
        Shape Copy 7
    </title>
    <path fill="currentColor" d="M3 18c-.5 0-1-.5-1-1s.5-1 1-1h11c-.5 0-1 .5-1 1s.5 1 1 1H3z"/>
    <path d="M3 0C2.1 0 1.4.3.9.9c-.6.5-.9 1.2-.9 2V17c0 1.5 1 3 2.9 3h12c.5 0 1-.5 1-1s-.5-1-.5-1-.4-.5-.4-1c0-1 1-1 1-1V1c0-.6-.5-1-1-1H3zm0 14c-.9 0-1 .4-1 .5V3c0-.5.5-1 1-1h11v12H3zm0 4c-.5 0-1-.5-1-1s.5-1 1-1h11c-.5 0-1 .5-1 1s.5 1 1 1H3zm8.1-8c.5 0 .9-.4.9-1s-.4-1-.9-1H4.9c-.5 0-.9.4-.9 1s.4 1 .9 1h6.2zM2 14.5zM11.1 6c.5 0 .9-.4.9-1s-.4-1-.9-1H4.9c-.5 0-.9.4-.9 1s.4 1 .9 1h6.2z"/>
</symbol><symbol id="icon-car" viewBox="0.6 0 22.9 16">
    <title>
        Rectangle 25 Copy
    </title>
    <path fill="currentColor" d="M6 1.9s3.5-.5 6-.5 6 .5 6 .5L19 5s-3.9-.5-7.3-.5S5 5 5 5l1-3.1z"/>
    <path d="M.6 6s1-.2 2.6-.4l.2-.6H3c-.6 0-1-.4-1-1s.4-1 1-1h1.2L5 1s3.6-1 7-1 7 1 7 1l.8 2H22v1c0 .6-.4 1-1 1h-.4l.2.6c1.6.2 2.6.4 2.6.4L22 11.6v2.9c0 .8-.7 1.5-1.5 1.5H20c-.6 0-1-.4-1-1v-1H5v.5c0 .8-.7 1.5-1.5 1.5H3c-.6 0-1-.4-1-1v-3.5L.6 6zM4 12h16l1.5-5s-4.8-1-9.3-1C7.6 6 2.6 7 2.6 7L4 12zm1-7s3.3-.5 6.7-.5c3.4 0 7.3.5 7.3.5l-1-3s-3.5-.5-6-.5S6 2 6 2L5 5zm0 3.5C5 7.7 5.7 7 6.5 7S8 7.7 8 8.5 7.3 10 6.5 10 5 9.3 5 8.5zm11 0c0-.8.7-1.5 1.5-1.5s1.5.7 1.5 1.5-.7 1.5-1.5 1.5S16 9.3 16 8.5zM9.5 7H15v.5c0 .3-.2.5-.5.5h-5c-.3 0-.5-.2-.5-.5s.2-.5.5-.5zm1 2H14v.5c0 .3-.2.5-.5.5h-3c-.3 0-.5-.2-.5-.5s.2-.5.5-.5zm0-7H13v.5c0 .3-.2.5-.5.5h-2c-.3 0-.5-.2-.5-.5s.2-.5.5-.5z"/>
</symbol><symbol id="icon-check" viewBox="-298 393 10 8">
    <title>
        Path 7
    </title>
    <path d="M-296.3 397.3c-.4-.4-1-.4-1.4 0-.4.4-.4 1 0 1.4l2 2c.4.4 1 .4 1.4 0l6-6c.4-.4.4-1 0-1.4-.4-.4-1-.4-1.4 0-1.8 1.8-5.3 5.2-5.3 5.2l-1.3-1.2z"/>
</symbol><symbol id="icon-checkbox" viewBox="-298 393 10 8">
    <title>
        Path 7
    </title>
    <path d="M-296.3 397.3c-.4-.4-1-.4-1.4 0-.4.4-.4 1 0 1.4l2 2c.4.4 1 .4 1.4 0l6-6c.4-.4.4-1 0-1.4-.4-.4-1-.4-1.4 0-1.8 1.8-5.3 5.2-5.3 5.2l-1.3-1.2z"/>
</symbol><symbol id="icon-children" viewBox="0 0 22 19">
    <title>
        Combined Shape Copy 10
    </title>
    <path fill="currentColor" d="M7 14c0-1.7 1.8-3 4-3s4 1.3 4 3-1.8 3-4 3-4-1.3-4-3zM2.9 7.4s-2-2.5 0-4.5 4 0 4 0l-4 4.5zM16 2.9s2-2 4 0 0 4.5 0 4.5l-4-4.5z"/>
    <path d="M0 4.5C0 2 2 0 4.5 0c1.4 0 2.6.6 3.4 1.5 1-.3 2-.5 3.1-.5s2.1.2 3.1.5c.8-.9 2-1.5 3.4-1.5C20 0 22 2 22 4.5c0 1.6-.9 3-2.2 3.8.1.6.2 1.1.2 1.7 0 5-4 9-9 9s-9-4-9-9c0-.6.1-1.1.2-1.7C.9 7.5 0 6.1 0 4.5zm15.8 10.6C17.2 13.8 18 12 18 10c0-3.9-3.1-7-7-7s-7 3.1-7 7c0 2 .8 3.8 2.2 5.1-.1-.4-.2-.7-.2-1.1 0-2.2 2.2-4 5-4s5 1.8 5 4c0 .4-.1.7-.2 1.1zM11 17c2.2 0 4-1.3 4-3s-1.8-3-4-3-4 1.3-4 3 1.8 3 4 3zM6 2.5c-.4-.3-.9-.5-1.5-.5C3.1 2 2 3.1 2 4.5c0 .7.3 1.4.8 1.8.7-1.5 1.8-2.9 3.2-3.8zm13.2 3.8c.5-.4.8-1.1.8-1.8C20 3.1 18.9 2 17.5 2c-.6 0-1.1.2-1.5.5 1.4.9 2.5 2.3 3.2 3.8zM9 12.5c0-.8.9-1.5 2-1.5s2 .7 2 1.5-.9 1.5-2 1.5-2-.7-2-1.5zm4-4c0-.8.4-1.5 1-1.5s1 .7 1 1.5-.4 1.5-1 1.5-1-.7-1-1.5zm-6 0C7 7.7 7.4 7 8 7s1 .7 1 1.5S8.6 10 8 10s-1-.7-1-1.5z"/>
</symbol><symbol id="icon-close" viewBox="-296 390 14 14">
    <title>
        Combined Shape
    </title>
    <path d="M-290.4 397l-5.3 5.3c-.4.4-.4 1 0 1.4.4.4 1 .4 1.4 0l5.3-5.2s3.5 3.4 5.3 5.2c.4.4 1 .4 1.4 0 .4-.4.4-1 0-1.4l-5.3-5.3 5.3-5.3c.4-.4.4-1 0-1.4-.4-.4-1-.4-1.4 0-1.8 1.8-5.3 5.2-5.3 5.2l-5.3-5.2c-.4-.4-1-.4-1.4 0-.4.4-.4 1 0 1.4l5.3 5.3z"/>
</symbol><symbol id="icon-clothes" viewBox="0 0 22 20">
    <title>
        Path 9
    </title>
    <path fill="currentColor" d="M7 3s1.5-1 4-1 4 1 4 1-2 2-4 2-4-2-4-2z"/>
    <path d="M5.9 1C3.4 2.1 1.3 4.6.1 6.9c-.1.2-.1.6.1.8l2.7 3.5c.3.3.8.4 1.1.1l1-.8V17c0 .6.1.8.5 1.2.4.4.8.7 1.4 1 1.1.5 2.5.8 4.1.8s3-.3 4.1-.8c.5-.3 1-.6 1.4-1 .4-.4.5-.7.5-1.2v-6.5l1.1.8c.3.3.8.3 1.1-.1l2.7-3.5c.1-.2.1-.6 0-.8-1.2-2.2-3.3-4.8-5.8-5.9-1.6-.7-3.3-1-5.1-1S7.5.3 5.9 1zM15 16.5S13.5 18 11 18s-4-1.5-4-1.5v-10L3.5 9l-1-2s1.1-2.3 3.7-3.7c.5.6 2 2.2 4.8 2.2s4.3-1.6 4.8-2.2C18.4 4.7 19.5 7 19.5 7l-1 2L15 6.5v10zM7.6 2.6c1-.4 2.1-.6 3.4-.6s2.4.2 3.4.6C13.8 3.2 12.6 4 11 4s-2.8-.8-3.4-1.4z"/>
</symbol><symbol id="icon-comment-active" viewBox="-574.3 770 24.4 20">
    <path fill="currentColor" d="M-566.6 786c0-.9-.6-1.3-1.4-1.4-.1 0-1.1-.1-1.1-.1-1.6 0-2.4-1.3-2.6-1.6-.1-.6-.3-1.3-.3-2.3-.1-2.3-.1-5.1.3-6.6.3-1 .7-1.4 1.7-1.6 1.7-.3 4.6-.4 7.9-.4s6.1.1 7.7.4c.9.1 1.4.6 1.9 1.7.6 1.7.6 6.6 0 8.6-.3 1.1-.6 1.4-1.7 1.6-1.6.3-5.1.4-8 .4h-2.4c-.5 0-1.3.3-1.6 1-.1.1-.4.6-.4.6v-.3z"/>
    <path d="M-566.3 785.3c0-.7-.6-1.1-1.3-1.3-.1 0-1-.1-1-.1-1.4 0-2.3-1.1-2.4-1.4-.1-.6-.1-1.1-.3-2-.1-2-.1-4.6.3-5.9.3-.9.7-1.3 1.6-1.4 1.6-.3 4.3-.4 7.3-.4s5.7.1 7.1.4c.9.1 1.3.6 1.7 1.6.6 1.6.6 5.9 0 7.7-.3 1-.6 1.3-1.6 1.4-1.4.3-4.7.4-7.4.4h-2.3c-.6 0-1.1.3-1.4.9-.1.1-.4.6-.4.6s.1-.1.1-.5zm4.1 1.8c2.9 0 6.3-.1 7.9-.4 2.1-.3 3.3-1.4 3.9-3.4.7-2.4.7-7.3 0-9.4-.7-1.9-1.9-3-3.9-3.4-1.7-.3-4.6-.4-7.7-.4-3.1 0-6 .1-7.9.4-2 .4-3.3 1.6-3.9 3.4-.7 2.3-.7 6.9 0 9.4.6 2 4.4 3.4 4.4 3.4s-.3.7-.4 1.1c-.6 1.1.4 2.4 1.6 2.1 1.9-.4 4.3-2.9 4.3-2.9s.7.1 1.7.1z"/>
</symbol><symbol id="icon-comment-default" viewBox="-574.3 770 24.4 20">
    <path fill="currentColor" d="M-569.9 784.2l2.9 1.4 12.9-.7s1.4-.7 2.1-1.4c.7-.7.7-9.3.7-9.3s-.7-1.4-1.4-2.1c-.7-.7-5-.7-5-.7s2.1.7 2.1 3.6v5c0 1.4-.7 1.4-2.9 2.1-2.1.7-12.9.7-12.9.7l1.5 1.4z"/>
    <path d="M-566.3 785.2c0-.7-.6-1.1-1.3-1.3-.1 0-1-.1-1-.1-1.4 0-2.3-1.1-2.4-1.4-.1-.6-.1-1.1-.3-2-.1-2-.1-4.6.3-5.9.3-.9.7-1.3 1.6-1.4 1.6-.3 4.3-.4 7.3-.4s5.7.1 7.1.4c.9.1 1.3.6 1.7 1.6.6 1.6.6 5.9 0 7.7-.3 1-.6 1.3-1.6 1.4-1.4.3-4.7.4-7.4.4h-2.3c-.6 0-1.1.3-1.4.9-.1.1-.4.6-.4.6s.1 0 .1-.5zm4.1 1.9c2.9 0 6.3-.1 7.9-.4 2.1-.3 3.3-1.4 3.9-3.4.7-2.4.7-7.3 0-9.4-.7-1.9-1.9-3-3.9-3.4-1.7-.3-4.6-.4-7.7-.4-3.1 0-6 .1-7.9.4-2 .4-3.3 1.6-3.9 3.4-.7 2.3-.7 6.9 0 9.4.6 2 4.4 3.4 4.4 3.4s-.3.7-.4 1.1c-.6 1.1.4 2.4 1.6 2.1 1.9-.4 4.3-2.9 4.3-2.9s.7.1 1.7.1z"/>
</symbol><symbol id="icon-construction" viewBox="1 0 17.7 19.7">
    <title>
        Path 12
    </title>
    <path fill="currentColor" d="M7.2 4.5l7 7 3-3h-3.5l-6.5-4z"/>
    <path d="M17.4 12.6l-2.8 2.8-5.1-4.2c-.2-.2-.5-.1-.7 0l-1.5 1.5c-.2.2-.2.5 0 .7.2.2.5.2.7 0l1.2-1.2 5.1 4.2c.2.2.5.1.7 0l3.5-3.5c.2-.2.2-.5 0-.7L17 10.7l1.4-1.4c.4-.4.4-1 0-1.4L10.8.3c-.4-.4-1-.4-1.4 0L5.8 3.9c-.4.4-.4 1 0 1.4l7.6 7.6c.4.4 1 .4 1.4 0l1.4-1.4 1.2 1.1zM1.3 18.8l.6.6c.4.4 1 .4 1.4 0l3.6-3.6c.4-.4.4-1 0-1.4l-.6-.6c-.4-.4-1-.4-1.4 0l-3.6 3.6c-.4.4-.4 1 0 1.4zM7.6 4.6l2.5-2.5 6.5 6.5-2.5 2.5-6.5-6.5z"/>
</symbol><symbol id="icon-cooperative" viewBox="1 0 23 19">
    <title>
        Combined Shape
    </title>
    <path d="M3.2 17.3c.2-.6.4-1.2.8-1.8.9-1.6 2.5-2.5 5-2.5s4.1.9 5.1 2.5c.3.6.7 1.5.7 1.5H7c-.6 0-1 .5-1 1s.4 1 1 1h9c.6 0 1.1-.5 1-1.1-.1-.9-.4-2.2-1.2-3.5C14.4 12.3 12.2 11 9 11s-5.4 1.3-6.8 3.5C1.4 15.8 1.1 17 1 17.9c0 .5.4 1 .9 1.1.5 0 1-.4 1.1-.9 0-.1.1-.4.2-.8zM9 10c2.8 0 5-2.2 5-5s-2.2-5-5-5-5 2.2-5 5 2.2 5 5 5zm0-2C7.3 8 6 6.7 6 5s1.3-3 3-3 3 1.3 3 3-1.3 3-3 3zm12 5v-3h3V8h-3V5h-2v3h-3v2h3v3h2z"/>
</symbol><symbol id="icon-dislike-active" viewBox="0 0 16 17.7">
    <path d="M15 11c.5 0 1-.5 1-1V5.4c0-3-2.6-5.4-5.6-5.4H5.5C2.4 0 0 2.4 0 5.4c0 1.9 1 3.7 2.7 4.7 3.3 2.7 3.2 6.5 3.2 6.5 0 .5.3.9.8 1h.5c1.5 0 3.2-.9 3.2-3.4 0-1.4-.2-2.5-.4-3.3h5z"/>
</symbol><symbol id="icon-dislike-default" viewBox="0 0 16 17.7">
    <path fill="currentColor" d="M7.5 17.5S8 15 10 15l-1.5-5L6 12.5l.5 4.5 1 .5z"/>
    <path fill="currentColor" d="M2.9 10c.9 0 1.7-.7 1-1.7-.1-.3-.2-.8-.2-1.3V3.2c0-.7-.5-1.2-1.2-1.2h-.6C1.2 2 .7 2.5.7 3.2v3.5c0 .2 0 .4.1.5l1.1 2.1c.2.4.6.7 1 .7z"/>
    <path d="M15 11c.5 0 1-.5 1-1V5.4c0-3-2.6-5.4-5.6-5.4H5.5C2.4 0 0 2.4 0 5.4c0 1.9 1 3.7 2.7 4.7 3.3 2.7 3.2 6.5 3.2 6.5 0 .5.3.9.8 1h.5c1.5 0 3.2-.9 3.2-3.4 0-1.4-.2-2.5-.4-3.3h5zm-4.5-9c1.3 0 2 .5 2.5 1H9.5c-.5 0-1 .5-1 1s.5 1 1 1H14v1H9.5c-.5 0-1 .5-1 1s.5 1 1 1H14v1H9c-.5 0-.9.3-1.1.6-.2.3-.2.6-.1.9.3.7.6 1.9.6 3.8 0 .8-.2 1.2-.7 1.4-.2-1.6-.9-4.6-3.8-7l-.1-.1C2.7 7.9 2 6.7 2 5.4 2 3.4 3.5 2 5.5 2h5z"/>
</symbol><symbol id="icon-down" viewBox="-298 394 10 6">
    <title>
        Path 7
    </title>
    <path d="M-296.3 394.3c-.4-.4-1-.4-1.4 0-.4.4-.4 1 0 1.4l4 4c.4.4 1 .4 1.4 0l4-4c.4-.4.4-1 0-1.4-.4-.4-1-.4-1.4 0-1.1 1.1-3.3 3.2-3.3 3.2l-3.3-3.2z"/>
</symbol><symbol id="icon-electronics" viewBox="0 0 14 20">
    <path fill="currentColor" d="M1 14h12v4H1z"/>
    <path fill-rule="evenodd" clip-rule="evenodd" d="M2 13h10v1H2v-1zm5 4c.6 0 1-.4 1-1s-.4-1-1-1-1 .4-1 1 .4 1 1 1zM0 2C0 .9.9 0 2 0h10c1.1 0 2 .9 2 2v16c0 1.1-.9 2-2 2H2c-1.1 0-2-.9-2-2V2zm2 0h10v16H2V2zm3 1.5c0-.3.2-.5.5-.5h3c.3 0 .5.2.5.5s-.2.5-.5.5h-3c-.3 0-.5-.2-.5-.5z"/>
</symbol><symbol id="icon-error" viewBox="-291.2 386.5 26 20">
    <title>
        Combined Shape
    </title>
    <path d="M-291.2 406.5l13-20 13 20h-26zm14.2-6.5v-6h-2v6h2zm0 4v-2h-2v2h2z"/>
</symbol><symbol id="icon-exclamation" viewBox="-303 387 4 19">
    <title>
        Combined Shape
    </title>
    <path d="M-303 389c0-1.1.9-2 2-2s2 .9 2 2v9c0 1.1-.9 2-2 2s-2-.9-2-2v-9zm2 13c1.1 0 2 .9 2 2s-.9 2-2 2-2-.9-2-2 .9-2 2-2z"/>
</symbol><symbol id="icon-fb" viewBox="-302 389 7 16">
    <title>
        Fill 4
    </title>
    <path d="M-300.5 405h2.9v-8h2.2l.4-2.5h-2.6v-1.8c0-.6.4-1.2.9-1.2h1.5V389h-1.8c-2.9.1-3.4 1.8-3.5 3.5v2h-1.5v2.5h1.5v8z"/>
</symbol><symbol id="icon-filter" viewBox="-293 387 24 20">
    <title>
        Combined Shape
    </title>
    <path d="M-289 402c0-.6.4-1 1-1h4c.6 0 1 .4 1 1v1h13c.6 0 1 .4 1 1s-.4 1-1 1h-13v1c0 .6-.4 1-1 1h-4c-.6 0-1-.4-1-1v-1h-3c-.6 0-1-.4-1-1s.4-1 1-1h3v-1zm0-14c0-.6.4-1 1-1h4c.6 0 1 .4 1 1v1h13c.6 0 1 .4 1 1s-.4 1-1 1h-13v1c0 .6-.4 1-1 1h-4c-.6 0-1-.4-1-1v-1h-3c-.6 0-1-.4-1-1s.4-1 1-1h3v-1zm10 7c0-.6.4-1 1-1h4c.6 0 1 .4 1 1v1h3c.6 0 1 .4 1 1s-.4 1-1 1h-3v1c0 .6-.4 1-1 1h-4c-.6 0-1-.4-1-1v-1h-13c-.6 0-1-.4-1-1s.4-1 1-1h13v-1zm-8-5c0 .6.4 1 1 1s1-.4 1-1-.4-1-1-1-1 .4-1 1zm10 7c0 .6.4 1 1 1s1-.4 1-1-.4-1-1-1-1 .4-1 1zm-10 7c0 .6.4 1 1 1s1-.4 1-1-.4-1-1-1-1 .4-1 1z"/>
</symbol><symbol id="icon-food" viewBox="0 0 22 16">
    <title>
        Combined Shape Copy 17
    </title>
    <path d="M21 12c0-5.5-4.5-10-10-10S1 6.5 1 12c0 1 1 1 1 1h18s1 0 1-1zM3 11c.5-3.9 3.9-7 8-7s7.5 3.1 8 7H3zm19 5v-2H0v2h22zM11 2c.6 0 1-.4 1-1s-.4-1-1-1-1 .4-1 1 .4 1 1 1zM8 8c1.1-1.1 1.8-2.5 1.4-2.8-.4-.4-1.8.2-2.9 1.3C5.4 7.6 4.8 9 5.2 9.4c.4.4 1.7-.3 2.8-1.4z"/>
    <path fill="currentColor" d="M19 11c-.5-3.9-3.9-7-8-7-3.8 0-7 2.7-7.9 6.2.8-3 3.4-5.2 6.4-5.2 3.3 0 6.1 2.6 6.5 6h-2.5H19z"/>
</symbol><symbol id="icon-football" viewBox="0 0 20 20">
    <title>
        Combined Shape Copy 20
    </title>
    <path fill="currentColor" d="M0 10C0 4.5 4.5 0 10 0s10 4.5 10 10-4.5 10-10 10S0 15.5 0 10zm9 7c4.4 0 8-3.6 8-8s-3.6-8-8-8-8 3.6-8 8 3.6 8 8 8z"/>
    <path d="M0 10c0 5.5 4.5 10 10 10s10-4.5 10-10S15.5 0 10 0 0 4.5 0 10zm7-8.1l2.4 1.7v3L7 8.4l-2.9-1-.9-2.8c1-1.2 2.3-2.2 3.8-2.7zm3.6 1.7L13 1.9c1.5.6 2.8 1.5 3.8 2.8l-.9 2.8-2.9.9-2.4-1.8v-3zm-4 5.9l.9 2.8-1.8 2.5h-3c-.9-1.3-1.4-2.8-1.5-4.5l2.4-1.7 3 .9zm4.9 3.6l1.8 2.5-.9 2.8c-.8.2-1.6.3-2.4.3-.8 0-1.6-.1-2.4-.3l-.9-2.8 1.8-2.5h3zm1.9-3.6l2.9-.9 2.4 1.7c-.1 1.7-.6 3.2-1.5 4.5h-2.9l-1.8-2.5.9-2.8z"/>
</symbol><symbol id="icon-furniture" viewBox="0 0 22 20">
    <path fill-rule="evenodd" clip-rule="evenodd" fill="currentColor" d="M6.7 8.7h8.6v2.7H6.7z"/>
    <path fill-rule="evenodd" clip-rule="evenodd" d="M15 8.5V6c0-2.2-1.8-4-4-4S7 3.8 7 6v5h8V8.5 10s-1.5-1-4-1-4 1-4 1V8.5s1-1 4-1 4 1 4 1zm2 1c0-.8.7-1.5 1.5-1.5s1.5.7 1.5 1.5-.7 1.5-1.5 1.5c-.2 0-.3 0-.5-.1V15h-1V9.5zM4 10.9c-.2.1-.3.1-.5.1-.8 0-1.5-.7-1.5-1.5S2.7 8 3.5 8 5 8.7 5 9.5V15H4v-4.1zm13 4V17H5v-2.2V19c0 .5-.4 1-1 1H3c-.6 0-1-.4-1-1v-6.3c-1.2-.6-2-1.8-2-3.2C0 7.6 1.6 6 3.5 6c.5 0 1 .2 1.5.4V6c0-3.3 2.7-6 6-6s6 2.7 6 6v.4c.5-.2 1-.4 1.5-.4C20.4 6 22 7.6 22 9.5c0 1.4-.8 2.6-2 3.2V19c0 .5-.4 1-1 1h-1c-.6 0-1-.4-1-1v-6H5v2l12-.1z"/>
</symbol><symbol id="icon-gift" viewBox="0 0 20 20">
    <title>
        Shape Copy 6
    </title>
    <path d="M3 4.1c-.1-.3-.1-.6-.2-.9v-.4c0-.2.1-.5.2-.8l.3-.6c.2-.4.5-.6.8-.8.2-.2.5-.3.8-.4.3-.1.7-.2 1-.2h.2c.2 0 .5 0 .7.1.2 0 .3.1.4.1.1 0 .2.1.3.1.7.4 1.3.9 1.8 1.6.1.1.2.2.3.4.2.2.3.4.4.6V3c0-.1.1-.1.1-.2.1-.2.2-.3.3-.5.1-.1.2-.3.3-.4.5-.7 1.2-1.3 2-1.6.1-.1.3-.1.4-.1.2-.2.5-.2.7-.2h.1c.4 0 .8.1 1.1.2.3.1.5.2.8.4.3.2.6.5.8.8.2.1.3.3.4.6.1.3.1.6.2.8v.4c0 .3-.1.6-.2.9 0 .2-.3.9-.4.9H19c.5 0 1 .5 1 1v4c0 .5-.5 1-1 1h-1v8c0 .5-.5 1-1 1H3c-.5 0-1-.5-1-1v-8H1c-.5 0-1-.5-1-1V6c0-.5.5-1 1-1h2.5s-.4-.7-.5-.9zM4 18h5v-7H4v7zm7 0h5v-7h-5v7zM9 7H2v2h7V7zm2 0v2h7V7h-7zM8.4 4.5c-.2-.5-.5-1-.8-1.4-.1-.2-.3-.4-.5-.6-.1-.1-.2-.2-.4-.3-.1-.1-.3-.2-.4-.2h-.5c-.2 0-.4.1-.6.3l-.1.1c0 .1-.1.1-.1.2v.7c0 .1 0 .1.1.2.2.4.5.7.9 1 .3.2.5.3.8.5 0 0 .1 0 .1.1h1.7c0-.3-.1-.5-.2-.6zm5.2.2c.2-.1.4-.3.6-.4.3-.3.6-.6.7-1 0-.1 0-.3.1-.4v-.1-.2c0-.1-.1-.1-.1-.2s-.1-.1-.1-.1c-.2-.2-.4-.3-.7-.3h-.3c-.1 0-.2 0-.3.1-.1 0-.3.1-.4.2-.2.1-.3.3-.4.4l-.2.2c-.1.1-.1.2-.2.3-.4.5-.6 1-.9 1.6 0 .1-.1.2-.1.3H13c.3-.2.5-.3.6-.4z"/>
    <path fill="currentColor" d="M2 9V7h7v2H2zm9 0V7h7v2h-7z"/>
</symbol><symbol id="icon-google" viewBox="-292 389 24 14.9">
    <title>
        ic_g+
    </title>
    <path d="M-284.6 389c1.8-.1 3.6.7 5 1.8-.6.7-1.2 1.3-1.9 2-1.7-1.2-4.1-1.5-5.8-.1-2.4 1.7-2.5 5.6-.2 7.4 2.3 2.1 6.5 1 7.2-2.1-1.4 0-2.8 0-4.3-.1v-2.5h7.1c.1 2-.1 4.1-1.3 5.8-1.8 2.6-5.6 3.4-8.5 2.3-2.9-1.1-5-4.2-4.7-7.3.1-4 3.6-7.3 7.4-7.2zm14.5 4.5v2.1h2.1v2.1h-2.1v2.1h-2.1v-2.1h-2.1v-2.1h2.1v-2.1h2.1z"/>
</symbol><symbol id="icon-heart-active" viewBox="-570.4 765 21 20">
    <title>
        Shape Copy 11
    </title>
    <path fill="currentColor" d="M-558.2 767.5c-1 1.1-2.4 1.1-3.5 0-.9-1.1-2.2-1.5-3.5-1.5-2.6 0-4.7 2.1-4.7 4.9 0 1.8.7 3.4 2.3 5.5 1.4 1.8 7.6 7.5 7.6 7.5s6.2-5.7 7.6-7.5c1.6-2.1 2.3-3.9 2.3-5.5 0-2.8-2-4.9-4.7-4.9-1.2 0-2.4.5-3.4 1.5z"/>
    <path d="M-558.5 768.4c-.8.8-2.1.8-2.9 0-.8-.8-1.9-1.3-2.9-1.3-2.2 0-4 1.8-4 4.1 0 1.5.6 2.8 2 4.6 1.2 1.5 6.4 6.3 6.4 6.3s5.3-4.8 6.4-6.3c1.4-1.8 2-3.3 2-4.6 0-2.3-1.7-4.1-4-4.1-1.1 0-2.1.4-3 1.3zm9.1 2.8c0 2-.8 3.9-2.5 6-1.5 1.8-3.5 3.7-6.2 6.2l-1.4 1.4c-.1.1-.3.2-.4.2-.1 0-.3-.1-.4-.2l-1.4-1.4c-2.7-2.5-4.7-4.3-6.2-6.2-1.7-2.1-2.4-4-2.4-6 0-3.5 2.6-6.2 6.1-6.2 1.7 0 3.3.6 4.4 1.9 1.2-1.2 2.8-1.9 4.4-1.9 3.3 0 6 2.7 6 6.2z"/>
</symbol><symbol id="icon-heart-default" viewBox="-295 387 20 19">
    <title>
        Combined Shape Copy 30
    </title>
    <path fill="currentColor" d="M-290.4 401c1.1 1 2.3 2.2 3.7 3.5l1.3 1.3c.1.1.3.2.4.2s.3-.1.4-.2l1.3-1.3c2.6-2.4 4.5-4.1 5.9-5.9 1.6-2 2.4-3.8 2.4-5.6 0-3.3-2.5-5.9-5.8-5.9h-.2l1 2s1 .5 1 2.5c0 3.6-3 5.5-6 7.5-1.8 1.2-3.5 2-3.5 2h-1.9z"/>
    <path d="M-283.6 390.2c-.8.8-2 .8-2.8 0-.8-.8-1.8-1.2-2.8-1.2-2.1 0-3.8 1.7-3.8 3.9 0 1.3.6 2.7 1.9 4.4 1.1 1.4 6.1 6 6.1 6s5-4.6 6.1-6c1.3-1.7 1.9-3.1 1.9-4.4 0-2.2-1.6-3.9-3.8-3.9-1 0-2 .4-2.8 1.2zm8.6 2.7c0 1.8-.8 3.6-2.4 5.6-1.4 1.7-3.3 3.5-5.9 5.9l-1.3 1.3c-.1.1-.3.2-.4.2s-.3-.1-.4-.2l-1.3-1.3c-2.6-2.4-4.5-4.1-5.9-5.9-1.6-2-2.3-3.8-2.3-5.6 0-3.3 2.5-5.9 5.8-5.9 1.6 0 3.1.6 4.2 1.8 1.1-1.1 2.7-1.8 4.2-1.8 3.2 0 5.7 2.6 5.7 5.9z"/>
</symbol><symbol id="icon-heart-empty" viewBox="0 0 20 19">
    <title>
        Shape
    </title>
    <path d="M11.4 3.2c-.8.8-2 .8-2.8 0C7.8 2.4 6.8 2 5.8 2 3.6 2 2 3.7 2 5.9c0 1.4.6 2.7 1.9 4.4 1.1 1.4 6.1 6 6.1 6s5-4.6 6.1-6c1.3-1.7 1.9-3 1.9-4.4C18 3.7 16.4 2 14.2 2c-1 0-2 .4-2.8 1.2zM20 5.9c0 1.9-.8 3.7-2.4 5.7-1.4 1.7-3.3 3.5-5.9 5.9l-1.3 1.3c-.1.1-.3.2-.4.2s-.3 0-.4-.2l-1.3-1.3c-2.6-2.4-4.5-4.2-5.9-5.9C.8 9.6 0 7.8 0 5.9 0 2.6 2.5 0 5.8 0 7.3 0 8.9.6 10 1.8 11.1.6 12.7 0 14.2 0 17.5 0 20 2.6 20 5.9z"/>
</symbol><symbol id="icon-heart-sm-active" viewBox="-570.4 765 21 19">
    <title>
        Shape Copy 11
    </title>
    <path fill="currentColor" d="M-558.3 767.8c-.9.9-2.2.9-3.2 0-.8-.9-2-1.4-3.2-1.4-2.3 0-4.2 1.9-4.2 4.4 0 1.6.6 3.1 2.1 4.9 1.3 1.6 6.8 6.7 6.8 6.7s5.6-5.2 6.8-6.7c1.5-1.9 2.1-3.5 2.1-4.9 0-2.5-1.8-4.4-4.2-4.4-1 0-2.2.5-3 1.4z"/>
    <path d="M-555.5 767.9c-.8 0-1.7.3-2.3.9l-2.1 1.9-2.1-1.9c-.6-.6-1.5-.9-2.3-.9-1.7 0-3 1.3-3 3.1 0 1.1.5 2.3 1.8 3.9 1.1 1.4 5.7 5.4 5.7 5.4s4.6-4.1 5.7-5.4c1.3-1.5 1.8-2.7 1.8-3.9-.1-1.8-1.5-3.1-3.2-3.1zm3.6 8.7c-1.5 1.7-3.5 3.5-6.2 5.9l-1.4 1.3c-.1.1-.3.2-.4.2-.2 0-.3-.1-.4-.2l-1.4-1.3c-2.7-2.4-4.7-4.2-6.2-5.9-1.7-2-2.5-3.8-2.5-5.7 0-3.3 2.7-5.9 6-5.9 1.6 0 3.2.6 4.4 1.8 1.2-1.1 2.8-1.8 4.4-1.8 3.4 0 6 2.6 6 5.9.2 1.9-.6 3.7-2.3 5.7z"/>
</symbol><symbol id="icon-heart-sm-default" viewBox="-570.4 765 21 19">
    <title>
        Shape Copy 11
    </title>
    <path fill="currentColor" d="M-565.6 778.9c1.1 1 2.4 2.1 3.8 3.4l1.3 1.3c.1.1.3.2.4.2s.3-.1.4-.2l1.3-1.3c2.7-2.3 4.7-4 6.1-5.7 1.7-1.9 2.5-3.7 2.5-5.4 0-3.2-2.6-5.7-6-5.7h-.2l1 1.9s1 .5 1 2.4c0 3.5-3.1 5.3-6.2 7.3-1.9 1.2-3.6 1.9-3.6 1.9l-1.8-.1z"/>
    <path d="M-555.5 767.9c-.8 0-1.7.3-2.3.9l-2.1 1.9-2.1-1.9c-.6-.6-1.5-.9-2.3-.9-1.7 0-3 1.3-3 3.1 0 1.1.5 2.3 1.8 3.9 1.1 1.4 5.7 5.4 5.7 5.4s4.6-4.1 5.7-5.4c1.3-1.5 1.8-2.7 1.8-3.9-.1-1.8-1.5-3.1-3.2-3.1zm3.6 8.7c-1.5 1.7-3.5 3.5-6.2 5.9l-1.4 1.3c-.1.1-.3.2-.4.2-.2 0-.3-.1-.4-.2l-1.4-1.3c-2.7-2.4-4.7-4.2-6.2-5.9-1.7-2-2.5-3.8-2.5-5.7 0-3.3 2.7-5.9 6-5.9 1.6 0 3.2.6 4.4 1.8 1.2-1.1 2.8-1.8 4.4-1.8 3.4 0 6 2.6 6 5.9.2 1.9-.6 3.7-2.3 5.7z"/>
</symbol><symbol id="icon-heart" viewBox="-298 390 14 13.3">
    <title>
        Shape Copy
    </title>
    <path d="M-284 394.1c0 1.3-.5 2.6-1.6 4-1 1.2-2.3 2.5-4.2 4.1l-.9.9c-.1.1-.2.1-.3.1s-.2 0-.3-.1l-.9-.9c-1.8-1.7-3.2-2.9-4.2-4.1-1.1-1.4-1.6-2.7-1.6-4 0-2.3 1.8-4.1 4-4.1 1.1 0 2.2.5 3 1.2.8-.8 1.9-1.2 3-1.2 2.2 0 4 1.8 4 4.1z"/>
</symbol><symbol id="icon-home" viewBox="0.9 0 20.3 19">
    <title>
        Rectangle 28
    </title>
    <path fill="currentColor" d="M10.1 17v-4.6h2.1V17h-2.1z"/>
    <path d="M1.2 9.9l3-3c0-.1-.1-.2-.1-.3v-2c0-.6.4-1 1-1s1 .4 1 1V5L10 1.1c0-.3.1-.6.3-.8.4-.4 1-.4 1.4 0l9.2 9.2c.4.4.4 1 0 1.4s-1 .4-1.4 0l-8.2-8.2-8.6 8.6c-.4.4-1 .4-1.4 0-.5-.4-.5-1-.1-1.4zm1.9 1.7l8-7.5 8 7.5v5h-2v-4l-6-6-6 6v4h-2v-5zM2 17h18c.6 0 1 .4 1 1s-.4 1-1 1H2c-.6 0-1-.4-1-1s.4-1 1-1zm6.1-5c0-.6.4-1 1-1h4c.6 0 1 .4 1 1v4c0 .6-.4 1-1 1h-4c-.6 0-1-.4-1-1v-4zm2 3.6c0 .6.4 1 1 1s1-.4 1-1v-2c0-.6-.4-1-1-1s-1 .4-1 1v2z"/>
</symbol><symbol id="icon-i" viewBox="-299 385 11.7 23.3">
    <title>
        Combined Shape
    </title>
    <path d="M-296.4 408.3c-.9 0-1.5-.2-1.9-.7s-.6-1-.6-1.5c0-.3 0-.7.1-1 .1-.3.2-.6.4-.9l3-6.2c.2-.4.3-.6.4-.9.1-.2.1-.4.1-.6 0-.2 0-.3-.1-.4-.1-.1-.1-.1-.3-.1-.3 0-.8.4-1.6 1.2-.8.8-1.3 1.2-1.4 1.2-.2 0-.3-.1-.5-.3-.2-.2-.3-.4-.3-.4 0-.2.2-.6.6-1 .4-.5.9-1 1.5-1.5.5-.5 1.2-.9 2-1.3s1.4-.6 2-.6c.9 0 1.6.3 2.1.8s.7 1.2.7 1.9c0 .3 0 .6-.1 1s-.2.7-.4 1.1l-2.4 5.3c-.2.4-.3.8-.4 1.1-.1.3-.1.5-.1.6 0 .1 0 .2.1.2h.2c.5 0 1-.3 1.6-1 .6-.7 1-1 1.2-1 .1 0 .3.1.5.3.2.2.3.4.3.5 0 .3-.8 1.1-2.4 2.4-1.5 1.2-3 1.8-4.3 1.8zm6.3-17.6c-.8 0-1.5-.3-2-.8-.6-.6-.8-1.2-.8-2s.3-1.4.8-2c.6-.6 1.2-.8 2-.8s1.5.3 2 .8c.6.6.8 1.2.8 2s-.3 1.5-.8 2c-.6.5-1.2.8-2 .8z"/>
</symbol><symbol id="icon-insta" viewBox="-295 387 20 19.9">
    <title>
        ic_instagram
    </title>
    <path d="M-288.6 387h7.3c3.5 0 6.4 2.8 6.4 6.3v7.3c0 3.5-2.8 6.3-6.4 6.3h-7.3c-3.5 0-6.4-2.8-6.4-6.3v-7.3c0-3.5 2.8-6.3 6.4-6.3zm-4.6 13.6c0 2.5 2 4.5 4.5 4.5h7.3c2.5 0 4.5-2 4.5-4.5v-7.3c0-2.5-2-4.5-4.5-4.5h-7.3c-2.5 0-4.5 2-4.5 4.5v7.3zm8.2-8.2c2.5 0 4.6 2 4.6 4.5s-2 4.5-4.6 4.5-4.6-2-4.6-4.5c0-2.4 2.1-4.5 4.6-4.5zm0 7.3c1.5 0 2.7-1.2 2.7-2.7s-1.2-2.7-2.7-2.7-2.7 1.2-2.7 2.7 1.2 2.7 2.7 2.7zm4-7.7c0-.6.4-1 1-1s1 .4 1 1-.4 1-1 1-1-.4-1-1z"/>
</symbol><symbol id="icon-like-active" viewBox="0 0 16 17.7">
    <path d="M10 6.7c.2-.8.4-1.9.4-3.3C10.4.9 8.7 0 7.2 0h-.5c-.5.1-.9.5-.8 1 0 0 .1 3.8-3.2 6.5C1 8.6 0 10.3 0 12.2c0 3.1 2.4 5.4 5.5 5.4h4.9c3.1 0 5.6-2.4 5.6-5.4V7.7c0-.5-.5-1-1-1h-5z"/>
</symbol><symbol id="icon-like-default" viewBox="0 0 16 17.7">
    <path fill="currentColor" d="M4.5 16.5h7C13 16.5 15 15 15 15V8h-2.5v5.5c0 1-1 2-2.5 2H3l1.5 1z"/>
    <path d="M10 6.7c.2-.8.4-1.9.4-3.3C10.4.9 8.7 0 7.2 0h-.5c-.5.1-.9.5-.8 1 0 0 .1 3.8-3.2 6.5C1 8.6 0 10.3 0 12.2c0 3.1 2.4 5.4 5.5 5.4h4.9c3.1 0 5.6-2.4 5.6-5.4V7.7c0-.5-.5-1-1-1h-5zm-4.5 9c-2 0-3.5-1.4-3.5-3.4 0-1.3.7-2.5 1.8-3.1 0-.2.1-.2.1-.3 2.9-2.4 3.6-5.4 3.8-7 .5.2.7.6.7 1.4 0 1.9-.3 3.1-.6 3.8-.1.4-.1.8.1 1 .2.3.6.6 1.1.6h5v1H9.5c-.5 0-1 .5-1 1s.5 1 1 1H14v1H9.5c-.5 0-1 .5-1 1s.5 1 1 1H13c-.5.5-1.2 1-2.5 1h-5z"/>
</symbol><symbol id="icon-logo" viewBox="-289 378 28.9 36.5">
    <title>
        take-away
    </title>
    <path fill="currentColor" d="M-261.2 408h-26.6l-.1 3c-.1 1.3 1 2.4 2.3 2.4h22.4c1.3 0 2.3-1.1 2.3-2.4l-.3-3z"/>
    <path fill="currentColor" d="M-273.5 401.5c0-1.7 1.3-3 3-3s3 1.3 3 3-1.3 3-3 3-3-1.3-3-3zm-8.5-6.5c0-1.7 1.3-3 3-3s3 1.3 3 3-1.3 3-3 3-3-1.3-3-3z"/>
    <path d="M-281 385.5v-.3c0-.2 0-.4.1-.7.1-.6.3-1.3.6-1.9.4-.8 1-1.4 1.7-1.9.9-.6 2.1-.9 3.6-.9s2.7.3 3.6.9c.8.5 1.3 1.1 1.8 1.9.3.6.6 1.3.7 2 0 .2.1.4.1.6V389c0 .5.4 1 1 1 .5 0 1-.4 1-1v-3.6-.1-.3c0-.3-.1-.5-.1-.8-.2-.9-.4-1.7-.9-2.5-1.3-2.4-3.6-3.8-7.1-3.8s-5.8 1.4-7.1 3.8c-.4.8-.7 1.6-.8 2.5-.1.3-.1.6-.1.9v4c0 .5.4 1 1 1s1-.4 1-1v-3.6z"/>
    <path d="M-263.4 414.5h-22.4c-.9 0-1.7-.4-2.4-1-.6-.6-.9-1.5-.9-2.4l1-22c.1-1.7 1.5-3.1 3.3-3.1h20.3c1.7 0 3.2 1.4 3.2 3.1l.6 12.7c0 .5-.4 1-.9 1s-1-.4-1-.9l-.6-12.7c0-.7-.6-1.2-1.3-1.2h-20.3c-.7 0-1.3.5-1.3 1.2l-1.1 22c0 .4.1.7.4.9.3.3.6.4.9.4h22.4c.4 0 .7-.1.9-.4.2-.3.4-.6.4-.9l-.1-3c0-.5.4-1 .9-1s1 .4 1 .9l.1 3c0 .9-.3 1.7-.9 2.4-.4.6-1.3 1-2.2 1z"/>
    <path d="M-273.5 401.5c0-1.7 1.3-3 3-3s3 1.3 3 3-1.3 3-3 3-3-1.3-3-3zm-8.5-6.5c0-1.7 1.3-3 3-3s3 1.3 3 3-1.3 3-3 3-3-1.3-3-3zm11.5 8c.8 0 1.5-.7 1.5-1.5s-.7-1.5-1.5-1.5-1.5.7-1.5 1.5.7 1.5 1.5 1.5zm-8.5-6.5c.8 0 1.5-.7 1.5-1.5s-.7-1.5-1.5-1.5-1.5.7-1.5 1.5.7 1.5 1.5 1.5z"/>
    <path d="M-272.1 392.6c.3-.5.9-.6 1.4-.2.5.3.6.9.2 1.4l-7.5 10.6c-.3.5-.9.6-1.4.2-.5-.3-.6-.9-.2-1.4l7.5-10.6z"/>
    <path d="M-285.8 414.3c-.9 0-1.7-.4-2.4-1-.6-.6-.9-1.5-.9-2.4l.1-3c0-.5.5-.9 1-.9h26.6c.5 0 .9.4 1 .9l.1 3c0 .9-.3 1.7-.9 2.4-.6.6-1.5 1-2.4 1h-22.2zm-1.3-3.3c0 .4.1.7.4.9.3.3.6.4.9.4h22.4c.4 0 .7-.1.9-.4.2-.3.4-.6.4-.9l-.1-2H-287l-.1 2z"/>
</symbol><symbol id="icon-music" viewBox="0 0 15 15">
    <title>
        Path 15
    </title>
    <path fill="currentColor" d="M6.1 8.8v-3l7.5-2.5v3L6.1 8.8z"/>
    <path d="M13 4.5L6.5 6.6V4.7L13 2.5v2zM6.5 7.7L13 5.5V9c-1 0-2 .1-2.5.4-.8.4-1.4 1-1.7 1.7-.4.8-.4 1.6-.1 2.4.3.7 1 1.2 1.9 1.4.8.2 1.6 0 2.3-.4 1.2-.6 2-1.7 2-2.9V.5c0-.3-.3-.6-.7-.5L4.9 3.2c-.2.1-.4.2-.4.5V9c-.6 0-1.9.2-2.5.5-.8.4-1.4 1-1.7 1.7-.4.8-.4 1.6-.1 2.4.5.9 1.4 1.4 2.6 1.4.6 0 1.2-.1 1.7-.4 1-.5 1.8-1.4 1.9-2.5l.1-.4v-4zm-2 3.4v.7c-.1.4-.4.8-.9 1-.7.4-1.4.3-1.6-.1-.1-.2-.1-.4.1-.6.1-.3.5-.6.8-.8.3-.2 1.3-.2 1.6-.2zM13 11v.5c0 .4-.4.9-.9 1.2-.4.2-.8.3-1.1.2-.3-.1-.4-.2-.5-.3-.1-.2-.1-.4.1-.6.1-.3.4-.6.8-.8.3-.2.6-.2 1.6-.2z"/>
</symbol><symbol id="icon-next" viewBox="-300 391 8 14">
    <title>
        Path 7 Copy
    </title>
    <path d="M-299.7 403.3c-.4.4-.4 1 0 1.4.4.4 1 .4 1.4 0l6-6c.4-.4.4-1 0-1.4l-6-6c-.4-.4-1-.4-1.4 0-.4.4-.4 1 0 1.4 1.8 1.8 5.2 5.3 5.2 5.3l-5.2 5.3z"/>
</symbol><symbol id="icon-od" viewBox="-300 389 10 16.9">
    <title>
        Shape
    </title>
    <path d="M-290.5 393.4c0-2.4-2-4.4-4.5-4.4s-4.5 2-4.5 4.4c0 2.4 2 4.4 4.5 4.4s4.5-2 4.5-4.4zm-2.7 0c0 1-.8 1.8-1.8 1.8s-1.8-.8-1.8-1.8.8-1.8 1.8-1.8 1.8.8 1.8 1.8zm2.6 6.9c.6-.4.8-1.2.4-1.8-.4-.6-1.2-.8-1.8-.4-1.8 1.1-4.2 1.1-6 0-.6-.4-1.4-.2-1.8.4-.4.6-.2 1.4.4 1.8.8.5 1.7.9 2.6 1l-2.5 2.4c-.5.5-.5 1.3 0 1.8.3.3.6.4.9.4s.7-.1.9-.4l2.4-2.4 2.4 2.4c.5.5 1.3.5 1.8 0s.5-1.3 0-1.8l-2.5-2.4c1.1-.2 2-.6 2.8-1z"/>
</symbol><symbol id="icon-pen-active" viewBox="-4.3 4.2 22.7 22.7">
    <path fill="currentColor" d="M-.5 21.5l2 1.6-1.1 1.5-1.9-2 1-1.1zm10.4-12l3 3-10 10-2.9-3 9.9-10z"/>
    <path d="M8 7.6l.7.7-10.6 10.6c-.4.4-.4 1 0 1.4l4.2 4.2c.4.4 1 .4 1.4 0l13.4-13.4c.4-.4.8-1 1-1.7.4-1.3.2-2.7-1-3.9-1.2-1.2-2.6-1.5-3.9-1-.8.2-1.4.7-1.7 1-.4.4-.4 1 0 1.4.4.4 1 .4 1.4 0 .2-.2.5-.4.9-.6.7-.2 1.3-.1 1.9.5.6.6.8 1.2.5 1.9-.1.4-.4.8-.6.9L14.2 11 9.4 6.2c-.8-.8-2.1-.8-2.8 0L3.7 9c-.4.4-.4 1 0 1.4.4.4 1 .4 1.4 0L8 7.6zm4.9 4.9L3 22.4.2 19.6l9.9-9.9 2.8 2.8zM-4 25.3c-.4.4-.4 1 0 1.4.4.4 1 .4 1.4 0l1.4-1.4.7.7c.4.4 1 .4 1.4 0l1.4-1.4-1.4-1.4-.7.7-1.4-1.4.7-.7-1.4-1.4-1.4 1.4c-.4.4-.4 1 0 1.4l.7.7-1.4 1.4zM.2 12.5c-.4.4-.4 1 0 1.4.4.4 1 .4 1.4 0L3 12.5c.4-.4.4-1 0-1.4-.4-.4-1-.4-1.4 0L.2 12.5z"/>
</symbol><symbol id="icon-pen-default" viewBox="-4.3 4.2 22.7 22.7">
    <path fill="currentColor" d="M-1.9 20.1l2 1.6-1.1 1.5-1.9-2 1-1.1zm12-10.4l1.5 1.5-10 10-1.5-1.5 10-10z"/>
    <path d="M8 7.6l.7.7-10.6 10.6c-.4.4-.4 1 0 1.4l4.2 4.2c.4.4 1 .4 1.4 0l13.4-13.4c.4-.4.8-1 1-1.7.4-1.3.2-2.7-1-3.9-1.2-1.2-2.6-1.5-3.9-1-.8.2-1.4.7-1.7 1-.4.4-.4 1 0 1.4.4.4 1 .4 1.4 0 .2-.2.5-.4.9-.6.7-.2 1.3-.1 1.9.5.6.6.8 1.2.5 1.9-.1.4-.4.8-.6.9L14.2 11 9.4 6.2c-.8-.8-2.1-.8-2.8 0L3.7 9c-.4.4-.4 1 0 1.4.4.4 1 .4 1.4 0L8 7.6zm4.9 4.9L3 22.4.2 19.6l9.9-9.9 2.8 2.8zM-4 25.3c-.4.4-.4 1 0 1.4.4.4 1 .4 1.4 0l1.4-1.4.7.7c.4.4 1 .4 1.4 0l1.4-1.4-1.4-1.4-.7.7-1.4-1.4.7-.7-1.4-1.4-1.4 1.4c-.4.4-.4 1 0 1.4l.7.7-1.4 1.4zM.2 12.5c-.4.4-.4 1 0 1.4.4.4 1 .4 1.4 0L3 12.5c.4-.4.4-1 0-1.4-.4-.4-1-.4-1.4 0L.2 12.5z"/>
</symbol><symbol id="icon-percent" viewBox="0 0 14.5 12.8">
    <path d="M8.5 9.5c0-1.7 1.3-3 3-3s3 1.3 3 3-1.3 3-3 3-3-1.3-3-3zM0 3c0-1.7 1.3-3 3-3s3 1.3 3 3-1.3 3-3 3-3-1.3-3-3zm11.5 8c.8 0 1.5-.7 1.5-1.5S12.3 8 11.5 8 10 8.7 10 9.5s.7 1.5 1.5 1.5zM3 4.5c.8 0 1.5-.7 1.5-1.5S3.8 1.5 3 1.5 1.5 2.2 1.5 3 2.2 4.5 3 4.5z"/>
    <path d="M9.9.6c.3-.5.9-.6 1.4-.2.5.3.6.9.2 1.4L4 12.4c-.3.5-.9.6-1.4.2-.5-.3-.6-.9-.2-1.4L9.9.6z"/>
    <path fill="currentColor" d="M11.5 11c.8 0 1.5-.7 1.5-1.5S12.3 8 11.5 8 10 8.7 10 9.5s.7 1.5 1.5 1.5z"/>
    <path fill="currentColor" d="M3 4.5c.8 0 1.5-.7 1.5-1.5S3.8 1.5 3 1.5 1.5 2.2 1.5 3 2.2 4.5 3 4.5z"/>
</symbol><symbol id="icon-plane-active" viewBox="-887.4 1163.2 18.3 18.4">
    <title>
        Path 13 Copy
    </title>
    <path fill="currentColor" d="M-881.2 1173.8l-4.2-1.4c-2.1-.7-1.8-3.9-.4-4.6s8.8-3.2 11.7-3.9c2.8-.7 4.9 1.4 4.2 4.2-.7 2.8-3.2 10.3-3.9 11.7s-3.5 1.4-4.6-.4-2.8-5.6-2.8-5.6z"/>
    <path d="M-884.1 1170.7c-.1 0-.3-.1-.4-.2-.2-.1-.5-.3-.6-.4-.1-.1-.2-.2-.2-.3s0-.2.1-.3c.1-.2.2-.4.4-.5h-.1c.1 0 .3-.1.6-.2.5-.1 1-.3 1.5-.5 1.5-.5 3.1-1 4.5-1.4h.2c3.4-1 5.6-1.7 6.2-1.8.8-.2 1.1.2.9 1-.1.6-.8 2.9-1.8 6.3 0 .1 0 .1-.1.2-.4 1.4-.9 3-1.4 4.5-.2.5-.3 1-.5 1.5-.1.3-.1.5-.2.6l.1-.2c-.2.2-.3.4-.6.5-.1 0-.2.1-.3.1s-.2 0-.3-.2c-.1-.1-.3-.3-.4-.6-.1-.1-.1-.3-.1-.3l-.1-.1-.7-1.4c-.2-.5-.8-.7-1.3-.5-.5.2-.7.8-.4 1.4l.7 1.4-.1-.1c0 .1.1.3.2.6.2.4.5.8.8 1.1.5.5 1 .7 1.7.7.4 0 .7-.1 1-.2.7-.2 1.1-.7 1.5-1.2.1-.1.1-.2.1-.2l.1-.2c0-.1.1-.3.2-.6.1-.5.3-.9.5-1.5.5-1.5.9-3.1 1.4-4.5v-.2c1.1-3.5 1.7-5.8 1.9-6.4.4-2.2-1.1-3.8-3.3-3.3-.7.1-2.9.8-6.4 1.9-.1 0-.1 0-.2.1-1.4.4-3 .9-4.5 1.4-.5.2-1 .3-1.5.5-.3.1-.5.1-.6.2l-.2.1c-.1 0-.1.1-.2.1-.5.3-.9.8-1.2 1.5-.1.3-.2.7-.2 1 0 .7.3 1.2.7 1.7.3.3.7.6 1.1.8.2.1.5.2.6.2l4.8 2.1c.4.2.8.1 1.1-.2l3.5-3.5c.4-.4.4-1 0-1.4s-1-.4-1.4 0l-3.2 3.2-3.9-2.3z"/>
</symbol><symbol id="icon-plane-default" viewBox="-591.4 776.3 18.3 18.4">
    <title>
        Path 6 Copy
    </title>
    <path fill="currentColor" d="M-574.4 776.8s.7 0 .4 1.8c-.4 1.8-3.9 13.1-3.9 13.1s-.4 1.1-1.8 1.1-2.5-2.5-2.5-2.5v-.7s1.1.7 2.2-1.3c2.1-3.5 4.4-9.1 4.8-10.1l.8-1.4z"/>
    <path d="M-588.2 783.7c-.1 0-.3-.1-.4-.2-.3-.1-.5-.2-.6-.4-.2-.1-.2-.2-.2-.3s0-.2.1-.3c0-.2.2-.4.4-.5h-.1c.1 0 .3-.1.6-.2.4-.1.9-.2 1.4-.4 1.5-.5 3.1-1 4.5-1.4h.2c3.4-1 5.7-1.7 6.3-1.8.8-.2 1.1.2.9 1-.1.6-.8 2.9-1.8 6.3 0 .1 0 .1-.1.2-.4 1.4-.9 3-1.4 4.5-.2.5-.3 1-.5 1.5-.1.3-.1.5-.2.6l.1-.2c-.2.2-.3.4-.6.5-.1 0-.2.1-.3.1s-.2 0-.3-.2c-.1-.1-.3-.3-.4-.6-.1-.1-.1-.3-.1-.3l-.1-.1-.7-1.4c-.2-.5-.8-.7-1.3-.5s-.7.8-.4 1.4l.7 1.4-.1-.1c0 .1.1.3.2.6.2.4.5.8.8 1.1.5.5 1 .7 1.7.7.4 0 .7-.1 1-.2.7-.2 1.1-.7 1.5-1.2.1-.1.1-.2.1-.2l.1-.2c0-.1.1-.3.2-.6.1-.5.3-.9.5-1.5.5-1.5.9-3.1 1.4-4.5v-.2c1.1-3.5 1.7-5.8 1.9-6.4.4-2.2-1.1-3.8-3.3-3.3-.6-.1-2.9.6-6.4 1.6l-.1.1c-1.5.4-3 .9-4.6 1.4-.5.2-1 .3-1.5.5-.2 0-.4.1-.5.1l-.2.1c-.1 0-.2.1-.2.1-.5.4-1 .9-1.2 1.5-.1.3-.2.7-.2 1 0 .7.3 1.2.7 1.7.4.3.7.6 1.2.8.2.1.5.2.6.2l4.9 2.1c.4.2.8.1 1.1-.2l3.5-3.5c.4-.4.4-1 0-1.4-.4-.4-1-.4-1.4 0l-3.2 3.2-4.2-2z"/>
</symbol><symbol id="icon-prev" viewBox="-300 391 8 14">
    <title>
        Path 7 Copy 4
    </title>
    <path d="M-299.7 397.3c-.4.4-.4 1 0 1.4l6 6c.4.4 1 .4 1.4 0 .4-.4.4-1 0-1.4l-5.2-5.3s3.4-3.5 5.2-5.3c.4-.4.4-1 0-1.4-.4-.4-1-.4-1.4 0l-6 6z"/>
</symbol><symbol id="icon-quotes-close" viewBox="0 0 40 42">
    <title>
        &#xBB;
    </title>
    <path d="M39.4 23.4L20.2 42l-3.3-3 13.5-17.9-9.2-18L25.7 0 40 18.8l-.6 4.6zm-16.2-4.6L8.7 0 4.5 3.1l9.2 18L0 39l3.4 3 19.2-18.6.6-4.6z"/>
</symbol><symbol id="icon-quotes-open" viewBox="0 0 40 42">
    <title>
        &#xAB;
    </title>
    <path d="M.6 18.8L19.6 0l3.5 3.1-13.8 18L18.8 39l-4.3 3L0 23.4l.6-4.6zM17 23.4L31.5 42l4.1-3-9.3-17.9L40 3.1 36.6 0l-19 18.8-.6 4.6z"/>
</symbol><symbol id="icon-search-active" viewBox="-295 387 19 19">
    <title>
        Oval 14 Copy
    </title>
    <path fill="currentColor" d="M-293 394.5c0-3 2.5-5.5 5.5-5.5s5.5 2.5 5.5 5.5-2.5 5.5-5.5 5.5-5.5-2.5-5.5-5.5z"/>
    <path d="M-277.7 405.7c.4.4 1 .4 1.4 0 .4-.4.4-1 0-1.4l-5.2-5.2c1-1.3 1.5-2.8 1.5-4.5 0-4.1-3.4-7.5-7.5-7.5s-7.5 3.4-7.5 7.5 3.4 7.5 7.5 7.5c1.7 0 3.3-.6 4.5-1.5l5.3 5.1zm-9.8-5.7c-3 0-5.5-2.5-5.5-5.5s2.5-5.5 5.5-5.5 5.5 2.5 5.5 5.5-2.5 5.5-5.5 5.5z"/>
</symbol><symbol id="icon-search-default" viewBox="-295 387 19 19">
    <title>
        Combined Shape Copy 36
    </title>
    <path fill="currentColor" d="M-293 394.5v-.5c.2 2.3 2.2 4 4.5 4 2.5 0 4.5-2 4.5-4.5 0-2.3-1.8-4.2-4-4.5h.5c3 0 5.5 2.5 5.5 5.5s-2.5 5.5-5.5 5.5-5.5-2.5-5.5-5.5z"/>
    <path d="M-277.7 405.7c.4.4 1 .4 1.4 0 .4-.4.4-1 0-1.4l-5.2-5.2c1-1.3 1.5-2.8 1.5-4.5 0-4.1-3.4-7.5-7.5-7.5s-7.5 3.4-7.5 7.5 3.4 7.5 7.5 7.5c1.7 0 3.3-.6 4.5-1.5l5.3 5.1zm-9.8-5.7c-3 0-5.5-2.5-5.5-5.5s2.5-5.5 5.5-5.5 5.5 2.5 5.5 5.5-2.5 5.5-5.5 5.5z"/>
</symbol><symbol id="icon-services" viewBox="0 0 23 21">
    <title>
        Path Copy 5
    </title>
    <path fill="currentColor" d="M12 2h9v8h-7.5L12 11V2z"/>
    <path d="M10 .8V13c0 .3.2.8.5.9s.6.2.8 0L14 12h8.2c.4 0 .8-.3.8-.7V.8c0-.4-.4-.8-.8-.8H10.8h-.1c-.4 0-.7.4-.7.8zM21 2v8h-7.5L12 11V2h9zM0 20.3c0 .4.3.7.7.7h10.6c.4 0 .7-.3.7-.8 0-3-2.8-5.3-6-5.3s-6 2.4-6 5.4zM3 11c0 1.6 1.4 3 3 3s3-1.4 3-3-1.4-3-3-3-3 1.4-3 3zm11.1-7.2c-.1.2-.1.5.1.8.2.2.4.3.7.3.3 0 .5-.2.6-.4.1-.2.6-.6 1.1-.6.6 0 1 .4 1 .8 0 .2 0 .2-.1.3-.1.1-.2.2-.4.3l-.6.3c-.1.1-.2.2-.4.3-.1.1-.3.4-.3.7v.3c0 .3.1.5.4.7.2.1.5.1.8 0s.4-.4.4-.7c.1-.1.3-.2.5-.3.3-.2.6-.4.8-.7.3-.3.5-.8.5-1.3 0-1.3-1.2-2.3-2.6-2.3-1 0-2.1.5-2.5 1.5zM7 11c0 .6-.4 1-1 1s-1-.4-1-1 .4-1 1-1 1 .4 1 1zm8.8-2c0 .4.4.8.8.8s.8-.3.8-.8c0-.4-.4-.8-.8-.8s-.8.3-.8.8zM10 19H2c.4-1.1 2-2 4-2s3.6.9 4 2z"/>
</symbol><symbol id="icon-star" viewBox="0.5 0.4 15 13.9">
    <title>
        Combined Shape
    </title>
    <path d="M3.3 14.4l.9-5L.5 5.8 5.7 5 8 .4 10.3 5l5.2.7-3.8 3.6.9 5L8 12l-4.7 2.4z"/>
</symbol><symbol id="icon-stars" viewBox="0.4 0.4 126 20">
    <path d="M108.6 20.4l1.3-7.2-5.4-5.2 7.6-1 3.4-6.6 3.4 6.6 7.6 1-5.5 5.1 1.3 7.2-6.8-3.4-6.9 3.5zm-26 0l1.3-7.2L78.5 8 86 7 89.4.4 92.9 7l7.6 1-5.5 5.2 1.3 7.2-6.8-3.4-6.9 3.4zm-26 0l1.3-7.2L52.5 8 60 7 63.4.4 66.9 7l7.6 1-5.5 5.2 1.3 7.2-6.8-3.4-6.9 3.4zm-26 0l1.3-7.2L26.5 8 34 7 37.4.4 40.9 7l7.6 1-5.5 5.2 1.3 7.2-6.8-3.4-6.9 3.4zm-26 0l1.3-7.2L.4 8 8 7 11.4.4 14.9 7l7.6 1-5.5 5.1 1.3 7.2-6.9-3.3-6.8 3.4z"/>
</symbol><symbol id="icon-subscribe" viewBox="-292 380 26 34">
    <title>
        Path 16
    </title>
    <path fill="currentColor" d="M-290 386l2.5 3-2.5 3h23l-3.5-3 2.5-3h-22z"/>
    <path d="M-292 387c0-1.1.9-2 2-2h5v-1c0-2 2-4 4-4h4c2 0 4 2 4 4v1h5c1.1 0 2 .9 2 2v23c0 2.2-1.8 4-4 4h-18c-2.2 0-4-1.8-4-4v-23zm9-2h8v-1c0-1-1-2-2-2h-4c-1 0-2 1-2 2v1zm-7 27h22v-20c0 .6-.4 1-1 1h-4v3s0 1-1 1-1-1-1-1v-3h-8v3s0 1-1 1-1-1-1-1v-3h-4c-.6 0-1-.4-1-1v20zm16-2c-.5 0-1-.4-1-1 0-5-4.1-9.1-9.1-9.1-.5 0-1-.4-1-1 0-.5.4-1 1-1 6.1 0 11 5 11 11 .1.7-.3 1.1-.9 1.1zm5-19l-2-2 2-2h-20l2 2-2 2h4.2c.5-1.6 2.2-3 3.8-3h4c1.7 0 3.3 1.4 3.8 3h4.2zm-9.5 18c0-3-2.5-5.5-5.5-5.5-.5 0-1-.4-1-1 0-.5.4-1 1-1 4.1 0 7.4 3.3 7.4 7.4 0 .5-.4 1-1 1-.5.1-.9-.3-.9-.9zm-6.5-1c0-1.1.9-2 2-2s2 .9 2 2-.9 2-2 2-2-.9-2-2zm2.3-17h7.4c-.4-.6-1-1-1.7-1h-4c-.7 0-1.3.4-1.7 1zm-7.3-1l1-1-1-1v2zm22-2l-1 1 1 1v-2z"/>
</symbol><symbol id="icon-triangle" viewBox="-280.4 378 46.5 37">
    <title>
        Path 16
    </title>
    <path d="M-280.4 415l23-37 23.5 37h-46.5z"/>
</symbol><symbol id="icon-up" viewBox="-295 393 18 10">
    <title>
        Path 7 Copy 7
    </title>
    <path d="M-285.3 393.3c-.4-.4-1-.4-1.4 0l-8 8c-.4.4-.4 1 0 1.4.4.4 1 .4 1.4 0l7.3-7.2s5.5 5.4 7.3 7.2c.4.4 1 .4 1.4 0 .4-.4.4-1 0-1.4l-8-8z"/>
</symbol><symbol id="icon-user-active" viewBox="-295 387 16 19">
    <title>
        Combined Shape Copy 32
    </title>
    <path fill="currentColor" d="M-290 392c0-1.6 1.3-3 3-3s3 1.3 3 3c0 1.6-1.3 3-3 3s-3-1.4-3-3zm-4.4 13.9s.5-8 7.4-8 7.4 8 7.4 8h-14.8z"/>
    <path d="M-292.9 404.3c.2-.6.4-1.2.8-1.8 1-1.6 2.6-2.5 5.1-2.5 2.5 0 4.1.9 5.1 2.5.4.6.7 1.5.7 1.5h-7.8c-.5 0-1 .5-1 1s.5 1 1 1h9c.6 0 1.1-.5 1-1.1-.1-.9-.4-2.2-1.2-3.4-1.4-2.2-3.6-3.5-6.8-3.5-3.2 0-5.4 1.3-6.8 3.5-.8 1.3-1.1 2.5-1.2 3.4 0 .6.4 1 .9 1.1.5 0 1-.4 1.1-.9 0-.1.1-.4.1-.8zm5.9-7.3c2.8 0 5-2.2 5-5s-2.2-5-5-5-5 2.2-5 5 2.2 5 5 5zm0-2c-1.7 0-3-1.3-3-3s1.3-3 3-3 3 1.3 3 3-1.3 3-3 3z"/>
    <path fill="currentColor" d="M-290 392c0-1.7 1.3-3 3-3s3 1.3 3 3-1.3 3-3 3-3-1.3-3-3zm-4 14s.4-8 7-8 7 8 7 8h-14z"/>
    <path d="M-292.9 404.3c.2-.6.4-1.2.8-1.8 1-1.6 2.6-2.5 5.1-2.5 2.5 0 4.1.9 5.1 2.5.4.6.7 1.5.7 1.5h-7.8c-.5 0-1 .5-1 1s.5 1 1 1h9c.6 0 1.1-.5 1-1.1-.1-.9-.4-2.2-1.2-3.4-1.4-2.2-3.6-3.5-6.8-3.5-3.2 0-5.4 1.3-6.8 3.5-.8 1.3-1.1 2.5-1.2 3.4 0 .6.4 1 .9 1.1.5 0 1-.4 1.1-.9 0-.1.1-.4.1-.8zm5.9-7.3c2.8 0 5-2.2 5-5s-2.2-5-5-5-5 2.2-5 5 2.2 5 5 5zm0-2c-1.7 0-3-1.3-3-3s1.3-3 3-3 3 1.3 3 3-1.3 3-3 3z"/>
</symbol><symbol id="icon-user-default" viewBox="-295 387 16 19">
    <title>
        Path 4
    </title>
    <path fill="currentColor" d="M-289 405.1s0-5 6-5c.5 0 .6-.5 1.6.5 2 2 1.5 4.5 1.5 4.5"/>
    <path d="M-292.9 404.3c.2-.6.4-1.2.8-1.8 1-1.6 2.6-2.5 5.1-2.5 2.5 0 4.1.9 5.1 2.5.4.6.7 1.5.7 1.5h-7.8c-.5 0-1 .5-1 1s.5 1 1 1h9c.6 0 1.1-.5 1-1.1-.1-.9-.4-2.2-1.2-3.4-1.4-2.2-3.6-3.5-6.8-3.5-3.2 0-5.4 1.3-6.8 3.5-.8 1.3-1.1 2.5-1.2 3.4 0 .6.4 1 .9 1.1.5 0 1-.4 1.1-.9 0-.1.1-.4.1-.8zm5.9-7.3c2.8 0 5-2.2 5-5s-2.2-5-5-5-5 2.2-5 5 2.2 5 5 5zm0-2c-1.7 0-3-1.3-3-3s1.3-3 3-3 3 1.3 3 3-1.3 3-3 3z"/>
</symbol><symbol id="icon-view" viewBox="-296 391 18 12">
    <title>
        Combined Shape Copy
    </title>
    <path fill="currentColor" d="M-290.7 399.7c1.1.7 2.4 1.3 3.7 1.3 3.5 0 7-4 7-4s-.5-.5-1.3-1.2c-.9 1-4.3 4.2-7.7 4.2-.6 0-1.2-.1-1.7-.3z"/>
    <path d="M-278 397c0 .4-.1.7-.4.9-1.3 1.2-4.3 5.1-8.6 5.1s-7.3-3.8-8.6-5.1c-.3-.3-.4-.6-.4-.9s.1-.7.4-.9c1.3-1.2 4.3-5.1 8.6-5.1s7.3 3.8 8.6 5.1c.3.2.4.5.4.9zm-9-4c-3.5 0-7 4-7 4s3.5 4 7 4 7-4 7-4-3.5-4-7-4zm-3 4c0-1.7 1.3-3 3-3s3 1.3 3 3-1.3 3-3 3-3-1.3-3-3zm3 1c.6 0 1-.4 1-1s-.4-1-1-1-1 .4-1 1 .4 1 1 1z"/>
</symbol><symbol id="icon-vk" viewBox="-294 391 19 12">
    <title>
        Shape
    </title>
    <path d="M-284.7 402.9h1.1s.3 0 .5-.3c.2-.2.2-.6.2-.6s0-1.7.7-1.9c.7-.2 1.6 1.6 2.5 2.3.7.6 1.3.4 1.3.4h2.5s1.3-.1.7-1.2c0-.1-.4-.9-1.9-2.4-1.6-1.6-1.4-1.4.5-4.2 1.2-1.7 1.6-2.8 1.5-3.2-.1-.4-1-.3-1-.3h-2.8s-.2 0-.4.1-.3.3-.3.3-.5 1.3-1.1 2.5c-1.3 2.4-1.8 2.5-2 2.4-.5-.3-.4-1.4-.4-2.1 0-2.3.3-3.3-.6-3.5-.3-.1-.5-.1-1.3-.1-1 0-1.9 0-2.4.3-.3.2-.6.6-.4.6.2 0 .6.1.8.5.3.4.3 1.4.3 1.4s.2 2.7-.4 3.1c-.4.2-.9-.2-2-2.4-.6-1.1-1-2.3-1-2.3l-.2-.4-.4-.2h-2.7s-.4 0-.6.2c-.1.2 0 .5 0 .5s2.1 5.5 4.5 8.3c2.3 2.4 4.8 2.2 4.8 2.2z"/>
</symbol><symbol id="icon-youtube" viewBox="-295 390 20 14">
    <title>
        Fill 3
    </title>
    <path d="M-287.1 394l5.4 2.8-5.4 2.8V394zm11.1-3c-.8-.8-1.6-.8-2-.8-2.8-.2-7-.2-7-.2s-4.2 0-7 .2c-.4 0-1.2 0-2 .8-.6.6-.8 2-.8 2s-.2 1.6-.2 3.2v1.5c0 1.6.2 3.2.2 3.2s.2 1.4.8 2c.8.8 1.8.8 2.2.8 1.6.2 6.8.2 6.8.2s4.2 0 7-.2c.4 0 1.2 0 2-.8.6-.6.8-2 .8-2s.2-1.6.2-3.2v-1.5c0-1.6-.2-3.2-.2-3.2s-.2-1.4-.8-2z"/>
</symbol><symbol id="icon-zoo" viewBox="1 0 20 18">
    <title>
        Combined Shape Copy 22
    </title>
    <path fill="currentColor" d="M13.4 7h.4c1.2 0 2.4-1.3 2.7-3 .3-1.9-.5-3.7-1.9-4h-.4c-1.2 0-2.4 1.3-2.7 3-.3 1.9.5 3.7 1.9 4zm6.8-1.6c-.3-.3-.7-.4-1.1-.4-.9 0-1.8.6-2.4 1.4-.9 1.4-.9 3 .1 3.8.3.3.7.4 1.1.4.9 0 1.8-.6 2.4-1.4.9-1.4.9-3.1-.1-3.8zm-14.9 1C4.7 5.6 3.8 5 2.9 5c-.4 0-.8.1-1.1.4-1 .8-1 2.4-.1 3.8.6.9 1.5 1.4 2.4 1.4.4 0 .8-.1 1.1-.4 1-.7 1-2.4.1-3.8zM5.6 4C5.2 2.1 6 .3 7.4 0h.4c1.2 0 2.4 1.3 2.7 3 .3 1.9-.5 3.7-1.9 4h-.3C7 7 5.9 5.7 5.6 4z"/>
    <path d="M6.5 12.9c-.6 1.3-.6 2.5-.3 2.8.2.2.4.3.6.3.4 0 .8-.2 1.8-.8.1-.1.1-.1.2-.1s.1 0 .1-.1c.9-.5 1.3-.7 2-.7.5 0 .9.1 1.5.4.3.1.5.2.9.5 1 .6 1.5.8 1.9.8.2 0 .4-.1.5-.2.3-.3.4-1.5-.2-2.9C14.6 11.1 13 10 11 10s-3.6 1.1-4.5 2.9zM8.3 7h.4c1.3-.3 2.1-2 1.8-3.9C10.1 1.3 9 0 7.7 0h-.3C6 .3 5.2 2.1 5.6 4 5.9 5.7 7 7 8.3 7zm5.1 0h.4c1.2 0 2.4-1.3 2.7-3 .3-1.9-.5-3.7-1.9-4h-.4c-1.2 0-2.4 1.3-2.7 3-.3 1.9.5 3.7 1.9 4zm6.8-1.6c-.3-.3-.7-.4-1.1-.4-.9 0-1.8.6-2.4 1.4-.9 1.4-.9 3 .1 3.8.3.3.7.4 1.1.4.9 0 1.8-.6 2.4-1.4.9-1.4.9-3.1-.1-3.8zm-14.9 1C4.7 5.6 3.8 5 2.9 5c-.4 0-.8.1-1.1.4-1 .8-1 2.4-.1 3.8.6.9 1.5 1.4 2.4 1.4.4 0 .8-.1 1.1-.4 1-.7 1-2.4.1-3.8zm2.2-2.8c-.1-.6 0-1.1.1-1.4.1-.1.1-.2.2-.2.2.1.5.5.7 1.4.1.6 0 1.1-.1 1.4-.1.1-.1.2-.2.2-.1-.1-.5-.6-.7-1.4zm6.2 1.2c-.2-.4-.2-.9-.1-1.4.2-.8.5-1.3.7-1.4 0 0 0 .1.1.2.2.4.2.9.1 1.4-.2.8-.5 1.3-.7 1.4-.1 0-.1-.1-.1-.2zM19 7.1c0 .3-.1.6-.3.9-.2.3-.5.5-.7.6v-.1c0-.3.1-.6.3-.9.2-.3.5-.5.7-.5 0-.1 0 0 0 0zm-15.3.5c.2.3.3.6.3.9v.1c-.2-.1-.5-.3-.7-.6-.2-.3-.3-.6-.3-.9V7c.2.1.4.3.7.6zm.3 1h.1H4zM19 7h.1-.1zm-1 1.6s-.1 0 0 0c-.1 0 0 0 0 0zM2.9 7s.1 0 0 0c.1 0 .1 0 0 0 .1 0 0 0 0 0zm10.8-2c.1 0 .1 0 0 0zM7.8 2c-.1 0-.1 0 0 0-.1 0-.1 0 0 0zm.4 3c.1 0 .1 0 0 0 .1 0 .1 0 0 0zm6-3c.1 0 .1 0 0 0 .1 0 .1 0 0 0zm3.1 10c1 2.1.9 4.2-.2 5.2-.6.5-1.2.8-1.9.8-1 0-2-.5-2.8-1-.5-.3-1.1-.6-1.4-.6-.3 0-.9.3-1.4.6-.8.5-1.8 1-2.8 1-.7 0-1.4-.3-1.9-.8-1.1-1-1.1-3.1-.2-5.1C5.9 9.5 8.3 8 11 8c2.8 0 5.1 1.5 6.3 4z"/>
</symbol></svg>